<svg version="1.0" xmlns="http://www.w3.org/2000/svg" viewBox="0 0 128 128">
  <path d="M111 31.8c-2-3-4.4-5.8-7-8.3l-4.6 4.7c-1.8-1.6-3.5-3.2-5.4-4.7l1.3-1.7h.2l3.4 2.9h.3l2.7-3v-.2a60.8 60.8 0 0 0-8.3-6.1c-1.2 1.8-2.2 3.8-3.5 5.6-2-1.2-4-2-6-3.1l.8-1.6c0-.1 0-.4.3-.4 1.5.5 3 1.4 4.4 2l2-3.7C88.4 12.4 85.3 11 82 10c-.8 2-1.3 4.2-2.1 6.2L75.2 15l-1.8-.4.4-2.2c.7 0 1.4.2 2 .4 1 .1 2 .5 2.8.6l1.2-4c-3-1-6-1.6-9-2H70c-.2 1.7-.3 3.5-.6 5.2a1 1 0 0 0-.4-.4c-.3-.2-.6 0-.8.2l-.3 1.5-5-.1v-.1-2.2c1.3-.2 3 0 4.4 0 .1 0 .4 0 .3-.2 0-1.3.3-2.7.1-4-3.2-.3-6.5-.2-9.7 0v.2c0 2.1.5 4.3.6 6.5l-3.9.7c-1 0-1.8.5-2.8.5l-.5-2a6 6 0 0 1 1.9-.6c.9-.3 1.9-.3 2.7-.6-.4-1.3-.5-2.8-.8-4.2-3.2.5-6.4 1.4-9.5 2.4.6 2.1 1.5 4.2 2 6.3l-6.2 2.7c-.3-.7-.8-1.3-1-2 1.4-.8 3-1.4 4.4-2V15c-.4-1.4-1-2.7-1.5-4-3.2 1.3-6.2 3-9.3 4.7v.1l3.4 5.6-6 4.5-1.3-1.6V24c1.3-1.2 2.7-2.2 4-3.2v-.3L32 17.3h-.2c-2.9 2.2-5.9 4.4-8.5 7.2 1.6 1.8 3.2 3 4.7 4.7l-.6.7-1 1.2-2 1-1.6 1.2-1.1 1-.4-.3v-.1l3.2-4.4-3-2.7h-.2a55 55 0 0 0-6.5 9.3l4.1 2.3-.2.5c-.9.4-1.7.8-2.5 1.4l-2.8-1.5H13c-1.1 2.3-2 4.6-2.9 6.9l-.5.8c-.2.1-.1.4-.3.5l-.3.3c-.3.8-.8 1.5-1 2.3l-.4.8v.4l-.2.7-.1.4c-.1.2-.2.4 0 .6-.2.5 0 .8.2 1.1 0 .3-.3.6-.4.8l-.6.9c-.2.4.2.8.5 1h.5c-.4 2.5-.6 5-.6 7.3 0 .2.2.1.3.2h6.2v.2l.2 1.7c0 2.8.5 5.2.8 7.8-.6.2-1.3.4-2.1.4l-.1-.1c-.5-1.8-.6-3.7-.8-5.6-1.4-.1-2.9.1-4.3.2.4 4.1 1 8.3 2.4 12l6.2-1.8c.8 2.4 1.8 4.8 2.8 7.2-.7.3-1.3.9-2 .9-1-1.5-1.5-3.2-2.1-4.8l-3 1c-.3.3-.7.3-1 .5a43 43 0 0 0 4.8 10c1.8-1.2 3.8-2.2 5.6-3.3h.2c1.2 2.2 2.7 4.2 4.3 6.1l-1.6 1.4h-.2c-1.2-1-2-2.8-3.2-3.9L17.1 96l-.1.2c2 3 4.4 5.8 7 8.3l4.7-4.7c1.7 1.7 3.5 3.2 5.3 4.7l-1.3 1.7h-.2l-3.4-2.8h-.3l-2.7 3v.2c2.6 2.2 5.4 4.4 8.3 6 1.2-1.7 2.3-3.7 3.5-5.6 2 1.2 4 2 5.9 3.1l-.7 1.6c0 .1 0 .4-.3.4-1.5-.5-3-1.4-4.4-2l-2 3.7v.1c3.1 1.6 6.2 3 9.5 4 .8-2 1.3-4.2 2-6.2l5 1.3 1.7.4-.4 2.2a12 12 0 0 1-2.1-.4c-1-.1-1.9-.5-2.8-.6l-1.1 4c2.9 1 5.9 1.6 9 2h.8c.4-2.2.4-4.5.8-6.6l6.3.2v.1c.1.7.2 1.6 0 2.2-1.2.2-3 0-4.3 0-.1 0-.4 0-.3.2 0 1.3-.3 2.7-.2 4 3.3.3 6.6.2 9.8 0v-.2c0-2.2-.5-4.4-.6-6.5l3.9-.7c1 0 1.8-.5 2.8-.5l.4 2a6 6 0 0 1-1.8.6l-2.7.6c.4 1.3.5 2.8.8 4.2 3.2-.5 6.4-1.4 9.5-2.4l-2.1-6.3c2.2-.8 4.2-1.7 6.3-2.7.3.7.8 1.3 1 2-1.4.8-3 1.4-4.4 2v.2a49 49 0 0 0 1.5 4c3.2-1.3 6.2-3 9.3-4.7l-3.5-5.7c2-1.3 4-3 6-4.4l1.4 1.5v.2c-1.3 1.2-2.7 2.2-4 3.2v.3l2.2 3.3h.2c2.9-2.2 5.9-4.4 8.5-7.2-1.6-1.8-3.2-3-4.7-4.7l.6-.7 4.4-5.3 1.7 1.2v.1c-1 1.5-2.3 2.9-3.2 4.4l3 2.6h.2a54 54 0 0 0 6.5-9.2c-1.9-1.1-3.8-2-5.7-3.2 1.2-2.2 2.4-4.5 3.2-6.8.8.1 1.4.5 2.2.8-.6 1.6-1.4 3-2 4.7 1.2.6 2.5 1.1 3.7 1.8h.1a64 64 0 0 0 4.1-10.4v-.1l-4.4-1.2c-.6-.3-1.4-.3-2-.7.7-2.4 1.1-5 1.6-7.6.7 0 1.4 0 2.1.2 0 1.4-.3 2.8-.6 4.1.1.4-.3.8 0 1.2l4 .8h.1c.7-3.6 1.3-7.3 1.3-11.2 0-.1-.2 0-.3-.2h-6.2l-.1-.1-.1-1.8c0-1.8-.3-3.4-.5-5l.4.1c.3.3.8.2 1.2.3l.9-.2.2 2.4 4.3-.3-.3-2.2h.1c.2.2.4.4.7.4.2.1.3-.1.4-.2 0-1-.5-1.8-.5-2.8 0-.8-.3-1.6-.4-2.4-.2-.3-.1-.7-.3-1 0-.7-.6-1.3-.7-2-.5-1-1-2.1-1.7-3v-.1c0-.8 0-1.6-.3-2.3l-.3-.4-.1-.4-.2-.3-1-1.6c-1-2.3-2.2-4.5-3.5-6.6l-2 1.2-.2-.1-.7-.4a20 20 0 0 0-1.7-1l-.3-.2 3.1-2 .1-.3zM68.5 15.5l.4-.7c.2 0 .3.4.5.5 1.6 2 4.7 1 6 3.3v.1c-.7.6-1.1 1.1-1.6 1.8l-.2 1-.2.1v.4h-.1l-.1.4-.3.8s-.1 0 0 .1c-.3.1-.4-.2-.6-.2a8.4 8.4 0 0 0-4.2-2.2h-1.9-.1l-.3-.2c-.4-.2-.7-.5-.9-1-.1-1 .5-1.8 1.3-2.2a5 5 0 0 0 2.3-2zm25.4 11.9c-.8.2-1.7-.2-2.7 0-1.2 0-2.4.6-3.6.6-.8 0-1.4.5-2.1.4-.2 0-.4 0-.5.3-.2.4.2.5.2.8 0 .2.2.3.1.5-.3.4-.9.6-1.3.9-.5.3-1 .3-1.6.6 0-.1-.1 0-.2 0h-.7c-1.2.1-2.3-.6-3.5-.5-2 .1-4 .8-5.8 1.7l-.4.1.2-.3 2.5-2.5.5-.5.4-.3.3-.3c.7-.7 1.5-1.2 2.5-1.6l1.2-.3c.5-.2 1 .1 1.5 0 1.8.5 3.7 0 5.4-.7.7-.4 1.6-.8 2.4-.8.3-.2.6-.2 1-.3.6 0 1.2.2 1.7.4 1.1.1 1.7 1 2.5 1.7v.1zm.6 1.4c1.3.5 2.3 1.4 3.4 2.1 0 .2.3.3.3.5-1.7.2-3.5 0-5.2.1-1.4 0-3 .3-4.5-.1-.3-.2-.7-.3-1-.6-.4-.1-.8-.4-1-.8-.1-.2-.3-.4-.2-.6a24.7 24.7 0 0 1 7.3-.9c.3 0 .6.3 1 .3zm-26.8 7.8l1.2.5c.9.2 1.6.3 2.5.2 1 0 1.8 0 2.8-.2h2.6c.6.3 1.1.1 1.6.6.7.3 1.2.7 1.7 1.2l.8 1 1 1.2 1 2 .3 1.2v.2c-1.3-.6-2.5-1.3-4-1.5-1-.2-2.4-.5-3.5-.1-1.8.2-3.7.7-5.6.2a4.6 4.6 0 0 1-3.6-2.8L66 39l-.4-1.7-.1-1v-1.8c.4.4.7 1 1.2 1.2l1 .9zm42.9 18.2l-.1.2c-.3.4-.6.8-1.2.9-.5.1-.7-.4-1-.6-.3-.4-.7-.8-1.2-.9-.7 0-1.4.4-1.7 1l-.1.4c0 .8 0 1.8-.5 2.6-.3.2-.5.6-1 .8-.6.5-1.5.7-2.4.4-.4-.3-1-.5-1.3-1l-.8-1.3c-.1-.7-.8-1-.7-1.9V55c.8.2 1.7.7 2.6.3.6-.1 1.2-.4 1.7-.6l1.9-1.3c.8-.5 1.3-1.2 2.2-1.6.7-.4 1.6-.4 2.3 0 .3 0 .3.1.4.3l1 1.7c-.2.3 0 .6-.1 1zM91 95.8V94l.5-1 .2-.6c.4-.6.7-1.3 1.2-1.9l.2-.7c.2-.4.4-.8.4-1.2l.1-.5v-1.9c0-.6-.4-1-.4-1.6.4-.5.5-1.1.7-1.7 0-.5.2-1 .1-1.4l.5-.7c.2-.9.4-1.8.2-2.7l-.2-.9 1 .2c.8 0 1.6.2 2.4 0 .4-.4.7 0 1.2 0 .4-.1.7.2 1.2 0 .2 0 .2-.3.3-.5-.6-.3-.7-1-1-1.5-.5-.8.2-1.6.2-2.4l.2-.3.8-2 .1-.3c.3-.4.5-.9.6-1.3l.4-1.5c.2-.8.2-1.4.1-2.2a5 5 0 0 0-.4-2l-.2-.3c0 .1.3-.1.4 0 1.2 0 2-.9 2.6-1.8l.1-.2c0-.2.3-.5.3-.8-.1-.5.5-.7.8-1 .4-1 .7-1.9.6-3 0-.2.3-.3.5-.5h.3l.3.1c.6.6 1.2 1.6 2.1 1.2a46.5 46.5 0 0 1-19 44.5l.1-.1c.3-1.3.4-2.8.4-4 .2-.5 0-1 .1-1.5zm-.7-10.3c0-.5-.2-1-.4-1.4-.3-1.3-1.3-2.2-2.1-3.2a14 14 0 0 1-2.8-3.8c-.3-.5-.4-1.2-.5-1.9l.8-4 .2-1.8h.1l.2 1.2c.2.4 0 .7.3 1.1 0 .4.2.6.3 1 .3.7 1 1.4 1.5 2 .3.4.7.9 1.2 1.1.7 1 1.7 1.8 2.4 2.7a6 6 0 0 1 1.2 2c.5 1 .3 2.5-.5 3.4l-.9 1.2-1 .8v-.4zm-4 12c0 1.2-.3 2.3-.5 3.3l-.2.5-.1.3c-.2.5-.6 1-1.1 1.2-.8 0-1.8 0-2.6-.3-.3 0-.6-.3-1-.3l-2.5-1.5 1.6-1.4c1.5-1 2.7-2.5 3.9-3.8.8-1 1.7-1.8 2.4-2.8.4-.5.9-1 1.2-1.6 0 .4-.3.5-.3.8l-.5 1.4-.2 2c-.2.8 0 1.5-.1 2.3zm-.5-6.1L84 93.6l-1.5 1.6c-.9.9-1.7 1.9-2.6 2.6l-1 .8c-.4.6-1.1.9-1.6 1.5-.4 0-.7-.2-1-.3-.3-.2-.7-.2-.7-.6l2-1.6 1.8-2c0-.1.3-.3.2-.6-.1-.1-.3-.2-.5-.1-.7.6-1.5 1.6-2.3 2.2l-.7.6-.3.2-1.2 1-1.2-.3c-.3-.1-.8-.2-1-.4 1-.6 1.6-1.3 2.4-2 1-.7 1.7-1.8 2.7-2.6 1.7-1.7 3-3.4 4.5-5.3 1-1.6 2-3 2.8-4.5l.4-.7.3-.7.4-1 .4-.5.4.5c.4.5 1 1 1.3 1.5 0 .3-.3.6-.5 1L86.2 86l.3.3c.1 0 .3 0 .4-.2.7-.6 1-1.5 1.7-2.2.3.2 0 .3 0 .5l-.6 1.2c-.3.5-.7 1-.8 1.6l-2.6 3.2-1 1.3-.3.4-.6.6c0 .3 0 .4.2.5h.6c1.2-1.3 2.3-2.8 3.4-4.2.5-.3.6-.8 1-1.2.2-.6.8-1.1 1-1.8h.1c.1 0 .1.2 0 .4 0 .3-.2.5-.4.8l-1.1 1.8c-.6.9-1.3 1.4-1.7 2.3zm-29.6 14.1c1-.3 1.8-.7 2.8-.7.2.2.2.6.5.7.3.7 1 1.1 1.6 1.3.4.3 1 .3 1.7.3a4 4 0 0 0 2.1-.5c.4 0 .5-.4.8-.6.7.5 1.5.6 2.4.6.3.1.8.2 1.2.1.8-.2 1.5-.9 1.9-1.6.2-.3.3 0 .5 0 0 .2.3.2.3.4l2.4 2 1 .6c.4 0 .7.2 1 .3-8 2.2-17.1 2.1-25 0 1.6-1 3-2 4.8-2.9zm3.3-2.4c.9-.6 2-.5 3.1-.4.2.3.3.7.6 1l.2.3 1.2 1.3c-1 .6-2.6.6-3.6.1-.3-.1-.6-.4-.8-.7-.4-.4-.6-1-.7-1.6zm10.7 1.2l-.3.6c-.3.3-.8.6-1.3.6-1.6 0-3-.8-4-2a4 4 0 0 1-1.2-1.9c-.2-.4-.5-1-.2-1.4.6-.2 1.2-.1 1.8.2h.3c1 .5 1.6 1.8 2.6 2.3a20 20 0 0 0 2.3 1.2c.1.1 0 .3 0 .4zm-4.2-5c-.5 0-.9-.2-1.3-.4-.8-.1-1.6-.1-2.2.2-.3 0-.6-.3-.8-.4a5 5 0 0 0-2.8-.3c-.7 0-1.4.2-2 .4-.5.2-.8-.3-1.2-.3l-1.6-1c-1.3-1-2.4-2.4-3.6-3.6-1.3-1.5-2.5-3-3.4-4.7-.6-1.2-1.2-2-1.6-3.3l-.5-1.4c-.2-.7-.6-1.5-.3-2.4v-1l-.2-.6.2.4.2.3c.3 1.1 1.1 2 1.6 3.2.4.9 1 1.7 1.6 2.5l.6.8c.4 0 .4.4.7.6 1.3 1.5 3 2.5 4.5 3.7.6.6 1.3 1 1.8 1.7l2 1.8c1.5 1.6 3.8 1.1 5.8 1.3 1.7 0 3.3-.4 4.8-1 .6-.1 1.1-.5 1.7-.7l1.4-1.5.1-.1c.8-.6 1.4-1.4 2-2l2.4-2c.7-.5 1.2-1.2 1.8-1.7 1-.8 1.6-2 2.4-3l1.1-1.6c.3-.4.4-1 .8-1.2.2.1 0 .4.3.5.1.2.1.5.3.6l.3.8c.1.4.6.8.1 1-.7 1.3-1.7 2.4-2.5 3.7l-1.7 2-3 3.1c-.9 1.2-2 2-3.2 3l-1 .8c-.4.2-.7.5-1.2.6-1.5 0-3.1.4-4.4 1.2zm-11.3.3l-1.6.8H53c-.2 0-.1.3-.3.2-.2.1-.4 0-.6-.1-.7-.4-1.1-.9-1.8-1.4a2 2 0 0 0-.7-.6l-.7-.6-.8-.1c-.2 0-.3.2-.2.4.2.4.5.8.9 1l2.1 2.1c0 .2-.2.3-.3.3-.4 0-.7-.3-1-.5-.6-.5-1.2-.7-1.7-1.3l-.8-.8-.1-.2-.8-.8-.8-1s-.2-.1-.2-.3l-1-1-.8-1.2-.9-1.5-.2-.6c-.2 0-.1-.3-.3-.5 0 0-.5-.9-.6-1.4l-.4-1.2c0-.5-.3-1-.4-1.3l.5-.8h.1c.2.8.7 1.5.9 2.3l1.2 2.6c.2.1.3.6.6.4.2 0 .3-.3.3-.4 0-.4-.1-.7-.3-1 0-.4-.3-.7-.5-1 0-.3-.2-.3-.2-.5l-.3-.9-.6-1.5-.2-1.1 1.6-1.5c.2.2.1.6.4.8.3 1.6 1.2 3 2 4.5a32 32 0 0 0 7.3 8.5l1.3 1v.1zm-12.6-3c0-.7-.2-1.3 0-2l2.4 3 1.5 1.7c.8 1 1.7 1.9 2.8 2.6l.6.4c-.3.4-.7.5-1 .7l-.7.3c-.8.3-1.5.8-2.4 1l-.2.2c-.6.2-1.5.2-2.1-.1-.2 0-.2-.2-.3-.3l-.4-.2c-.5-1-.3-2.3-.3-3.6l.1-3.7zm-4.8-9.4s-.1 0 0 .1h-.1c-.2-.2-.2-.5-.3-.8-.1-.5.1-1.4-.6-1.6-.3-.4-.6-.8-.7-1.3l-.3-.5c0-.6-.2-1.2 0-1.7 0-.5.2-.8.3-1.3l.3-.7c.9-1.1 2-2.3 3.4-2.9.8-.2 1.4-.7 2.2-1 .1-.2.4-.2.5-.3.2-.2.3-.5.6-.6l.2.4c.1.8.4 1.5.6 2.2.1.5.4 1 .2 1.5 0 .5-.1 1-.4 1.3-.3.4-.6.6-1 .8 0 .2-.2.2-.3.3-1.7 1.1-3 2.6-4 4.4v.1l-.2.3-.3 1.2-.1.1zM35 89.7l.2.4c.3 1 1.4 2 2.4 2.4.3.4.5.8.5 1.2.1.8-.1 1.6-.2 2.4l-.3 1.2v.2l-.2 1.7-.1.4v2a46.4 46.4 0 0 1-19.3-40l.6.4c0 .6 0 1 .2 1.6.2.2.2.6.4.9.6 1.3 1.9 2.1 3.1 2.8 1 .3 1.7.4 2.8.1h.2l.8 2 .5.7c.1.4.5.7.7 1 .4.6 1 .8 1.4 1.4a3 3 0 0 0 1.8 1.8c.1.2.4 0 .4.3-.3.3-.3.8-.5 1.2 0 .7 0 1.6.3 2.3l.2.6v.1c.2.6.7.8 1 1.2.2.6.7 1 1.1 1.5l1 .4.1.5.4 1.5c0 .3.3.7.5 1l.6 1-.6 1c-.3.9-.3 1.8 0 2.8zM13 56.3c-.4-.5-.5-1.3-.5-2 .4-.2.5-.6.9-.9l.5-.7c.3-.2.3-.5.5-.7-.3 1-.4 2-.4 3 0 .6.3 1.1.4 1.7-.5 0-1.1.1-1.4-.4zm1 1.8l-.1.7-2.2-.3.3-1.8c.1.4.4.8.8 1 .4.3.8.4 1.2.4zm-.4-7.1c-.6.5-.9 1.3-1.5 1.8-.2.4-.6.6-.9.8l-1.1.7c-.5.2-1 .6-1.6.6l1.3-2.2 1.7-2c1.9-2.2 4.2-3.9 6.6-5.4 1.6-.6 3-1.7 4.7-1.8.7-.2 1.6-.3 2.5-.3l1.7.4c.9.2 1.7.6 2.7.5v.2c-.3.3-.5.6-.6 1-.6 1-1 2-1.4 3l-.2.7c-.2.2-.2.5-.2.7.2.6 1 1 1.7 1.2l.4.2c.2.5.7.7 1 1.1-1 .2-1.8-.1-2.6-.6-.5-.5-.6-1.5-1.4-1.7-.4 0-1-.3-1.3.2-.6.4-.4 1.3-.6 2v.7l1 1.7h-.1c1 .8 1.2 1.9 1.9 2.9l.2.7c.6 1.4.4 3.2-.2 4.5 0 .3-.3.6-.3 1-.3.4-.5.9-1 1.3-.3.5-.6 1-1.3 1.2-.9.3-2 .2-2.8-.5-.7-.5-1.6-1.1-1.9-2.1 0-.4-.2-.7-.1-1.2 1.2.2 2.4-.1 3.2-1 1.2-.6 1.6-2.1 2-3.4 0-1.6-.1-3.3-1.4-4.4a18 18 0 0 0-2.1-1L20 51.1c-.3-.6-1-1.3-.9-2.2 0-.3 0-.7.3-1 .3-.7.9-1.2 1.5-1.5.2 0 .4 0 .6-.2.4-.3 1 0 1.2-.5 0-.3 0-.6-.2-.8-.5-.3-1.2 0-1.8.1-.8.3-1.4.9-2 1.4l-.8.6c-.9.3-1.6.9-2.2 1.4 0 .2-.3.3-.5.4 0 .4-.5.5-.6 1l-1 1zM57 49.4c.6 0 1.1-.5 1.7-.6 0 .3-.4.6-.6.9l-.2.1-.3.3c-.1.2-.5.3-.6.4-.4.4-.8.5-1.1.9l-.6.2-.4.2c-1.3.5-2.6.8-4 .5l-1-.1c-.4-.3-1-.3-1.5-.5-1.4-.2-2.7-.3-4 0l-.6.1c-.7.4-1.5.8-2 1.5l-.8 1.4-.3.4-.3.6h-.1v-1c.2-.7.6-1.3 1-2 .5-.6 1.2-1 1.9-1.6 1-.8 2.5-.8 4-1 1.4-.2 3-.1 4.6-.3.8 0 1.7 0 2.4-.3h.8v.1l2-.2zM71 47a17.7 17.7 0 0 0 4.2 1.2c1.5.3 3.3.3 4.6 1.2a4 4 0 0 1 2.2 1.8 5 5 0 0 1 1.3 2.2c.2.3 0 .8.2 1.2l.2 1.3v.7c-.3 0-.4-.2-.6-.4-.4-.5-.6-1-1.1-1.3-.7-.8-1.8-1.5-2.6-2-3.2-1.9-7-2.5-10.6-3-2.2-.3-4.4-.3-6.5-.6-.5-.2-1.2-.2-1.4-.8 0-.3.3-.4.3-.8.4-.7 1-1.4 1.2-2.2l.2-.4c0-.1.2-.2.1-.3.1-.3.3-.5.3-.8l.4-1 .2-.6c.2 0 .4.2.6.4 0 .4.6.5.7 1 .7.6 1.4 1 2.2 1.5.8.3 1.7.6 2.5.7h.6c0 .5.6.6.9 1zm-.3-2.5v-.1c1.5 0 3-.2 4.3-.3 1.6-.4 3.1-.3 4.7 0 .8.2 1.4.8 2.3 1l.6.3 1.4 1.4c.1.3.3.5.3.8.3 1.1.3 2.4 0 3.6-.1.2-.1.5-.3.7-.4-.8-1.4-1.4-1.8-2.3a9 9 0 0 0-4-2c-2.1-.5-4.3-.6-6.4-1.5l-.8-.6-.3-1zM61 50l1.4.4 4.5.3 3 .3c1.4.3 2.8.4 4.2.8l3.3 1.1c.5.3 1.1.5 1.5.9.9.6 1.7 1.2 2.4 2l.6.7.9 1.3c.1.3.5.6.5 1 .2.2 0 .5.3.7 0 .2.2.2.3.3h.3l.2 3.6c.1 1.9-.1 3.6-.2 5.5v.5l-.5 3-.4 1.9c-.2.8-.5 1.6-.6 2.5l-.4 1.3-.3.8-.6 1.3-.2.4c-.4.6-1 1.2-1.1 1.9l-.2.3-.3.4-.2.4c-1 1.2-1.8 2.5-3 3.6l-1 1a2 2 0 0 1-.4.2l-2.5 2.2-3.4 3c-.7.7-1.7 1.2-2.7 1.4-2.1.6-4.3.5-6.5.4-1-.2-1.7-.9-2.4-1.5l-1.4-1.6-2.1-1.8-.8-.5c-.2-.3-.6-.5-1-.8a19 19 0 0 1-3-2.9c-.4-.1-.5-.5-.7-.7l-.5-.8-.5-1-.2-.3-1.1-2.2-.6-1.5-.6-1.4-.5-1.4c-.6-1.9-1.2-3.9-1.4-6l-.1-.4-.3-2.7v-3.4c.7-.3 1.5-.6 2-1.3l1-.8.7-.2c0 .4-.3.6-.5 1-.3.6-1 1.2-1 2 .2.3.4.5.7.5h1.1c-.1.2 0 .3 0 .4.1.2.4 0 .7 0v.5c1.3 1.5 3 2.3 5.1 2.3h.8c1.7-.4 3.3-1 4.9-1.5.3-.3.9-.5.8-1-.6-1-1.7-1.4-2.6-2l-1.8-.5a9.2 9.2 0 0 0-3.7.2l-3.4 1.4s-.2.1-.2 0h.1l1.6-1.2 1.3-.8c1-.4 1.6-.7 3-.6l1.3.5.3-.1c0-.5-.1-.7-.5-1-.7-.2-1.2-.4-2.2-.3-.6.1-1.3.2-1.9.5l-1 .5c-.5.3-.7.6-1.2.8-.3.3-.9.6-1.1.9-.3 0-.8.3-1 .2l.3-.7s.2-.1.1-.3l.7-1c.6-.4 1-.9 1.7-1.3 1.2-.5 2.5-.4 3.4-.4 2.2.1 3.4.4 4.8.4 1-.2 2-.3 2.7-.9l.2-.5c-.2-.2-.4-.2-.6-.1-1.2.6-1.7.5-2.8.5H54c-1.1-.2-2-.5-3-.3-.4-.1-1.2.3-1.5.2 0-1.1 1-2.1 1.7-3.1.6-.5 1.3-1 2.2-1.4.4-.3 1.1-.6 1.4-1.2.5-.3.8-.9 1.2-1.3v-.9h.1v-.1l2.4-1.6.3-.3 1.1-1.1c.2-.3.4 0 .6.1 0 .3.4.3.6.4zm22 29.8l.6-1.5c0-.2.1-.6.4-.8v.1s0 .2.2.3c.2.7.8 1.4 1.2 2l-.2.9-.4.7-.4 1c0 .3-.3.4-.4.6-.3-.2-.5-.4-.6-.7l-.3-1.2c-.3-.4 0-.9-.1-1.4zm-47.3-7.7c.8 0 1.6-.2 2.2-.7.8-.8 1.4-2 1.7-3l.2-.4c0-.1.3.3.3.6.1.8 0 1.5-.3 2-.4.8-1.3 1.3-1.8 2-.3.4-.8.6-1.2.8l-2.5 2-2 2-.1.4-.2.2-.2-.4c-.3-.7-.2-1.7.2-2.5 0-.2 0-.3.2-.4.6-.1 1.4 0 2-.2.6-.3.9-.7 1.1-1.2l.2-.4.1-.2.1-.6zm5.6-3.6v-.3l-.8-1.6.2-.6.2-.1.2-.1h.1c0 .1.2 0 .2 0 .2.2 0 .6.1.8l.1 2.2.1.8c0 .1-.2 0-.2 0-.2-.3 0-.8-.2-1zm.4-8l-.1.4c-.3.6-.3 1.2-.4 1.9l-.2.2c-.4.2-.6.9-1.1.8-.9 0-2-.1-2.3-1-.3-.7.2-1.4.6-2 .5-.4 1.1-1.2 2-1 .4 0 1 .2 1.6.1v.2l-.1.4zM33 78.7c.4-1.2 1.3-1.8 2.1-2.6l2.5-2c.4 0 .5-.3.9-.5l1.8-1.9.7-1c.5 0 .6.4.8.7.3.7.4 1.6 0 2.2-.1.1-.2.1-.2.3-.7.8-1.8 1-2.7 1.5-.8.4-1.7.7-2.2 1.4h-.1c-.8.7-1.8 1.3-2 2.5l-.4 1-.1.4c-.2 0-.4 0-.6-.2l-.2-.4c-.3-.4-.4-1-.3-1.4zm8-20c-.3-.3-.2-.6-.2-1l.3-.9c.2-.6.7-1 .8-1.7.5-.7 1-1.4 1.7-1.8.3 0 .4-.3.7-.3 1-.3 2-.2 3-.2l1.1.2c0 .2-.4.3-.6.4-.5.2-.8.9-1.2 1.1-.6.4-1.2.7-1.6 1.3-.5.3-.6.8-1.1 1-.6.5-.9 1.1-1.3 1.6-.6-.2-1 .5-1.7.2zm9.5-5.3c1.4.2 2.6.2 3.9-.2.1 0 0 .2 0 .2-.2.4-.6.7-.9 1-.3.4-.6.6-1 .8l-1.5.9H51c-1.3.6-1.9 2-2.6 3.2l-.5.8c-.2.3-.2.6-.6.7l-.3.2c-.2.2-.5.2-.7.1l-.1-.1c-.2-1.8.4-3.6 1-5 .3-.5.6-.9 1-1.2.7-.5 1.6-1 2.4-1.3zm-8.1 8.3c.1-.9.6-1.5.9-2.3.6-.8 1.1-1.7 2-2.3.2 0 0 .2 0 .4l-.3 1.6c-.2.7-.1 1.4 0 2 .1.6-.5.9-.7 1.3l-.5.4c-.3.3-.6.4-.9.5-.2.1-.2 0-.2-.2l-.1-.2c.1-.5-.5-.8-.3-1.2zm5.5 4.6c.2 0 .5-.2.6 0v.5l-.1-.1a2 2 0 0 1-.5-.4zm7.7-.1c.1.3.1 1-.3 1.3-.3.3-1.4.5-1.8.6a6 6 0 0 1-2.1 0l-1.8-.7v-.7c0-.2-.2-.5 0-.9 0 0 1.8-1 3.2-1 1.4 0 2.6.4 2.9.5 0 0-.3.1-.1.9zm.8-.5a7 7 0 0 1 1.4 1l-1.2.4s.1-1-.2-1.4zm-7-17c-2.4.3-5 0-7 1.5-.7.4-1.2 1-1.9 1.2-.7.5-1.5.6-2.2 1-1.6.5-3.4.9-5 .3-.8-.1-1.6-.6-2-1.1.5-.1 1 0 1.7-.2 1.2-.1 2.3-.6 3.3-1.3 1-.6 1.8-1.5 3-2.1a8 8 0 0 1 7.2-1.8h.1c.5 0 .8.4 1.3.4.5.3.8.6 1.3.7l2 1.1v.1c-.5.3-1.2.1-1.8.2zm-18 4.4c.3 0 .4.3.6.3 1.4.6 3.2 1 5 .7.8-.3 1.8-.3 2.5-.8h.1c0 .4-.3.6-.2 1-.1.2 0 .4-.2.5-.2 1.2 0 2.5.4 3.6-.2.2-.5.1-.7.3a4 4 0 0 0-2.4 3.2c0 .8-.2 1.6.3 2.1.2.6.7.9 1.2 1 .3.5.9.4 1.3.5 0 .3-.2.4-.3.7-.1 0 0 .3-.3.4v.2l-.6 1.7-.7 1.4c-.5.7-1 1.2-1.8 1.2-.6 0-.8-.6-1.2-.8l-.4-1c-.2-.8-.4-1.6-1.2-2-.3 0-.7-.2-1.1 0-.5.2-1 .6-1.2 1.2-.2.5.1 1 .3 1.5.6 1 1.5 1.8 2.7 1.8h.8l-.3.9c-.1.4-.4.9-.8.9s-1.1.1-1.5-.1c-1.2 0-1.7-1-2.2-1.9-1-.6-1.6-1.6-2.4-2.6a5 5 0 0 1-.6-2.6c.4-.8 1.2-1.5 1.5-2.5l.3-.7c.1-.2 0-.6.3-.8.3-1.4.5-3.1 0-4.5-.3-1-.8-2-1.3-2.8-.4-.9-1.3-1.4-1.5-2.3l-.2-.6c.1-.4 0-.9.3-1.2l.1-.1c.2 0 .2.2.3.3.3.7.8 1.3 1.4 1.7.1 0 .4.1.5.3.8.4 1.9.4 2.8.2.1 0 .4-.1.4-.3zm1.7 17.4h-.3c-.6-.4-.9-1-1.1-1.6 0-.3.3-.4.5-.6.6 0 .4.8.6 1.1 0 .4.2.7.3 1zM18.1 49.7c-.9.2-1.8.4-2.4 1l-.1.1c.3-.5.8-1 1.3-1.5.4-.2.7-.7 1-1h.1l.1 1.4zm-2.4 2.9c.7-.6 1.4-1 2.2-1.3l.7-.1c.2 0 .1.1.2.2.3.6.7 1.2 1.3 1.5-.5-.2-1.1-.1-1.6 0-.6.1-1 .5-1.3 1 0 .5-.1 1 .3 1.2l.6-.1c.2-.2.2-.5.4-.6.3-.1.6-.2.9-.1.3.3.4.6.3 1l-.2.4c-.5.7-1.2 1.3-2.2 1.2-.9 0-1.5-.8-1.8-1.6 0-1-.2-2 .3-2.7zm1.3 5.8c1.6.1 3-.8 3.7-2.2l.2-.6V55c0-.4-.1-1-.3-1.3l-.4-.6c.6.4 1.3.8 2 1 .7.5 1.6 1 1.7 1.8.3 1.3-.2 2.6-.8 3.7-.6.6-1.2 1.2-2.2 1.3-1 .1-2 0-2.6-.6-.7-.4-1.4-.9-1.4-1.8v-.1zm21.6 29.3c0-.4.2-.7.3-1.1.2-.6.3-1 .7-1.5l.2-.2c1-1.3 2-2.4 3.5-3.3h.1v1l-.1.4v.1l-.2.3c-1 1.3-2.4 2-3.3 3.4-.3.3-.5.7-.5 1.1-.2.2 0 .5-.3.6v.4l-.2.2c-.5-.2-.1-1-.2-1.4zm47.2-33.4c1 .6 2.3.6 3.4.5.8-.1 1.5-.6 2.2-1.2l.3-.4c.2 0 .5.1.6.4.7.4 1 1 1.4 1.8l.2.4c0 .4.3.6.2 1l.3.3c.6-.2.7-1 1.1-1.4.1-.6.3-1.2.1-1.8a13 13 0 0 0-.4-1.6h.7c.4.2.9.5 1 1 .3.3.7.5.7 1v.2c0 1 .2 2 .8 2.7v.5c.3.4.7.8.9 1.3.4.4.6 1 1.3 1.1.1.2.4 0 .5.4.4.1.8 0 1.3.2.3-.1.7 0 1-.2v.1a6 6 0 0 1-.4.7c-.9.9-2.3.4-3.3 0l-1.4-.8c-.8-.5-2-.7-2.8-.4l-.2.1c-.4.3-1 .4-1.2.9-.2 0-.2.2-.2.2l-.4.6c0 .2-.3.2-.2.4 0 0-.2 0-.2.2 0 .1 0 .3-.2.4l-.2-.1-.5-.4-.5-.4a6.6 6.6 0 0 0-3.8-1.1l-1.5 1-.3.3-.2.2h-.2V62s-.1-2.5-.5-3.6c0-.6 0-1.3-.2-1.8 0-.7 0-1.6-.2-2.2l.2-.5c.3 0 .5.4.8.3zm-.8-2V52l.2-.2c0-.4.1-.8.3-1.1.8.4 2 .6 3 .6s1.8 0 2.4-.7c.3 0 .5-.2.7-.4.3 0 .5.2.7.4.4.4 1 .6 1.3 1 0 .3.3.4.3.7l.5.6.2 1.3-.1.1-.7-1c-.3-.4-.8-.6-1-1-.4-.2-.7-.4-.9-.7 0-.2-.2-.2-.5-.2-.4.2-.3.6-.6.9v.1c-.5 1-1.8 1.4-3 1.2-.4 0-1 0-1.3-.3-.6-.1-1-.7-1.5-1zM101 67c-.2 1-.5 1.8-.8 2.6l-.6 1.2-.2.5v.2c-.2.8-.8 1.3-.8 2.2-.2.6-.5 1.4-.1 2l.1.3h-.3l-.1-.3c-.5-.4-.8-1-.9-1.6-.2-1.2-.1-2.5-.4-3.6 0-.7-.3-1.3-.7-1.9-.5-.6-1.3-1-2-1.4l-.8-.2s-.2 0-.2-.2l.8-1.4c.3-.6.3-1.3.3-2v-.1-.5l.2-.5c.3-.5.8-.6 1.2-1v.1l.7-.2c.6 0 1.2.3 1.7.5.6.3 1 .8 1.7 1 1.1 1 1.2 2.5 1.2 4v.3zm-11.4 7.6c-.2-.5-.5-1-.6-1.6 0-.3-.3-.6 0-.8v.2c.4.3.6.8 1 1 .1.2.4.2.5.3 1 1 2.1 1.8 2.6 3 .6.9.8 2 .6 3 0 .1-.1 0-.2 0 0-.4-.4-.8-.6-1.2l-1.4-1.6-1.8-1.9v-.4zm-2.6-7V66c-.1-.7-.2-1.4-.6-2 .2-.4.4-1 1-1.4.1-.4.6-.2 1-.6 1.1 0 2.2.4 3 1 .6.4 1 1 1.4 1.6.1.1.3.2.2.4-.4.4-.5 1-1 1.3v1.1c.1.2.1.5.3.7-.1.2.1.6-.2.6-.6 0-1.1-.2-1.6-.5-.4-.3-.7-.7-1.2-.9-.1 0-.2-.2-.3-.1a1 1 0 0 0-.6.7c-.3.5-.4 1.2-.6 1.8v.5l-.1.4v1.2h-.1l-.1.1-.1-.1a2 2 0 0 0-.2-.5l-.2-1v-.4-2.4zm6.7 7.8c-1-1.4-2.4-2.3-3.5-3.4-.4-.4-.5-1-.8-1.5 0-.3-.2-.6 0-1 .2-.3-.3-.2-.2-.6.8.2 1.3.9 2 1 .6.2 1 .1 1.5.1h.3c.2 0 .3-.1.4-.3V69l.1-1c.5.1.8.6 1.3.8.5.6.8 1.3 1 2.2.1 1 0 2.1.3 3 0 .4.1.8.3 1l.1.4.6.9h-1.5c-.7-.2-1.8 0-2-1zm13.2-24.7c-.9.4-1.4.9-2.2 1.5-.8.5-1.4 1.2-2.3 1.5 0-.6-.5-1-.5-1.6v-1.8c0-.8 0-1.6.6-2.2.2-.5.8-.7 1.2-1l1.6-.5h.7c.7.3 1 .8 1.4 1.3.2.4.5.7.6 1.1.3.3.3.8.5 1.1l.1.3a3 3 0 0 0-1.7.3zm-2.9-5l-.8.4-.1-.3c-.3-.4-.8-.7-1.2-1h1.6c.4.3.9.5 1.3.6l.2.2-1 .2zm-5.3-2.3h-.2c-1-.5-2.5-.2-3.6-.1-1 .5-2 .2-3.1.1l-2.8-.6c-.8-.2-1.3-.7-2-1-.5-.5-1.1-.8-1.5-1.3l-.2-.3-2-2-.6-.6c-.3 0-.4-.1-.6-.3.5-.2 1-.4 1.5-.4 1-.5 2-.6 3-.8 1 0 2 .2 3 .4 0 .1.2 0 .2 0 .5.3 1.2.4 1.8.4h.5c1.5.3 2.9.1 4.5.3 1 0 2 .3 3 .6.5.2 1 .3 1.4.7.6.3 1 .8 1.6 1.2.3.5.8.8 1.1 1.4l1.6 1.5c-1.6 1.7-4.4 1.3-6.6.8zM82 38.7c1 1.1 2.2 2.1 3.4 3.2.5.5 1.2.8 1.8 1.1a16 16 0 0 0 5.5 1.5c.7 0 1.5 0 2-.3l.1-.1c1.6-.5 3.1-.1 4.6.3l.5.2c.5.5 1 .8 1.6 1.2.2.2.2.6.5.8v.2c-1.4 1.3-1.5 3.5-1.3 5.5l.6 1.5.2.1c-1 .7-2 .2-2.8-.1-.1-.1-.4-.2-.4-.4-.6-.6-1-1.7-1.9-2-.7-.4-1.3-.4-2-.3l-1.9-1.5a2 2 0 0 0-1.4-.5c-.4.2-.7.6-1 .9-1.1.3-2.1.2-3.2 0-.5 0-1-.2-1.3-.5-.3-.2-.1-.7-.2-1.1 0-.6-.2-1.1-.4-1.6-.2-.7-.6-1.1-.8-1.8-.2-.3-.1-.8-.3-1.2-.2-.8-.3-1.7-.8-2.4a7 7 0 0 0-1.8-2.5l-.7-.8c.5 0 .9.3 1.3.4 0 0 0 .2.1.1zM58 27.3l-.6-.5-.3-.6c-.2-.6-.6-1.3-1-1.8-.8-.9-2.2-1.4-3.5-1.5-.3-.1-.8-.3-.9-.6l4.8-3.2s0-.2.2-.2l2-1a7 7 0 0 1 3-.8c.9-.2 1.8 0 2.6.2 0 .2-.1.3 0 .4 0 .1-.2.1-.2.3-.3.4-.4 1-.4 1.4 0 .6.3 1 .6 1.4.6.6 1.2 1.2 2 1.3h.3c.2.2.2.6.3.8 0 .5 0 1 .2 1.3 0 1 0 2-.2 3l-.3 1-.1.4v.1l-.2.4-.1.4-.4.8-.2.4-.1.2c-.5.5-1.5.4-2 .3-.4-.1-.7-.4-1-.7L62 30l-.4-.5-.1-.2c-.4-.8-1.2-1.1-2-1.4-.4-.2-1.3.2-1.6-.4zm-8.1-3.2l-.5-.2-.5-.2 1.1-.5v.7l-.1.2zm-3-1.6c-.6 0-1.2-.3-1.6-.6l.7-.3a39 39 0 0 1 9.2-2.9c-.7.5-1.5.8-2 1.4l-1.6.9a7.2 7.2 0 0 1-4.8 1.5zM51 24c0-.2.3-.2.4 0l.6.3c.4 0 1 0 1.4.2h.2c1.2.2 1.9 1.4 2.3 2.4.2.8 1 1.2 1.4 1.8.5.4 1.1.3 1.7.3.2.2 0 .2 0 .3-.7.5-1.4 1.2-2.3.9-.7-.3-1.7-.6-2-1.3-.2-.5-.8-.8-1.4-.9-.5-.2-1.1-.5-1.5-1-.3-.3-.6-.7-.7-1.3-.1-.5-.2-1-.1-1.7zm15.3 9.4c-.2 0-.3-.2-.4-.4 0-.3-.2-.3-.1-.6l.1-.3c.4-.4.5-1 .9-1.3.3-.8.7-1.6.9-2.5l.4-1.9c.1-1.1 0-2.3-.1-3.5-.1-.2-.3-.5-.3-.8.5-.2 1 0 1.4.2l2 1.2 1 1.4c.2.3.4.6.4.9v.2l-.3 2.6-.2 1-.1.4c0 .3-.3.6-.4.9l-.5.8c0 .5-.4.8-.7 1-.5.5-.9 1-1.5 1.2a4 4 0 0 1-2.5-.5zm20.9-8.8c-.9.4-1.7.8-2.6 1-1.3.4-2.6.8-4 .4-.2-.1-.5 0-.9-.2l-1.7.4a7.8 7.8 0 0 0-3.1 2l-1.2 1c-.2.1-.2.3-.4.3V29c.1-1.3.5-2.4.4-3.7l.1-.8.5-2c.3-.8.5-1.7 1-2.3a4 4 0 0 1 1.8-1c1.7-.6 3.2.3 4.6 1.2l1.1 1 2 1.5c.7.7 1.7 1 2.5 1.6l-.2.1zM49 17.2c-.5-2-1.3-4-1.9-6v-.4c2.3-.8 4.6-1.4 7-1.8l.5 2.2-4.3 1-.2.1 1.2 4.2c2.6-.5 5.2-1.2 8-1.4l.3-.3-.6-6.3.2-.2c2.4-.3 5-.3 7.3-.1.2.8.1 1.5 0 2.3-1.7 0-3.2-.2-4.9 0 0 1.4 0 2.9.2 4.4h5.5l-.1.4a3 3 0 0 1-1.9 1.2c-.6-.3-1.3-.4-2-.6h-.7c-1.5 0-3 .3-4.2 1l-.9.5c-4.6.6-9 2-13.3 4-.2-.4-.3-.9-.6-1.2-.3-.1 0-.5-.3-.6 1.8-1 3.7-1.7 5.7-2.4zm-6.3 4c.3.2.4.8.8 1 .7.7 1.5 1.3 2.4 1.6l1.5.7c.3.3.7.4 1 .5l1.5.6c.2.7.3 1.5.7 2v.1c.3.4.7 1 1.2 1.2l.9.6h.3c.2 0 .4 0 .6.2l.4.6c.2.5.6.6 1 .9 1 .6 2.7.8 3.7 0 .5-.4 1-.7 1.3-1.1l.2-.1c.3.4 1.1.4 1 1.1.4.7 1 1.3 1.7 1.7h2v.3.3h-.1v.4l-.1.4c-.2 1.6-.1 3.3.3 5l.7 1.9c.3.5.5 1.1 1 1.5.8 1 2 1.3 3.1 1.7-.1.2.2.5 0 .7-.9-.1-1.6-.4-2.3-.7l-1-.7c-.4-.3-1-.7-1.3-1.2-.4-.2-.4-.6-.7-.7-.4-.4-.7-.7-.6-1.3 0-.7-.2-1.2-.4-1.7-.2-.8-.8-1.3-1.5-1.9-1.3-.6-3-.5-4.3 0-.2.2-.3.2-.5.2-.5.4-1.1.8-1.4 1.3-.2.3-.5.3-.8.2-.6-.4-1.3-.4-2-.7-.2-.4-.7-.7-1-1-.9-.6-1.9-1-2.8-1.5 0-.7-.3-1.2-.5-1.9l-.4-1c-.6-1.4-1.8-2.3-2.8-3.3l-1.3-.7c-1.4-.3-2.8-.4-4 .4 0 .2-.4.2-.5.5l-.4.7-.5-.2c-.5-.4-1-.7-1.8-.8 0 0-.1-.1 0-.2.8-1 2-1.8 3.3-2 .2-.2.4-.4.4-.7-.1-.2 0-.5-.2-.7 0-.5-.1-1.2 0-1.6v-.1h.1c.2-.8.6-1.6 1.3-2 .2-.3.5-.4.8-.6zm8.3 18c1.2-.3 2.4 0 3.4.3.5.2.9 1.3 1.5.6l.2-.3.3-.5c1-1.2 2.6-1.8 4.2-1.6.4 0 .9.1 1.1.5.3.2.5.4.6.8v.1h-.1v.1c-.6-.2-1 0-1.4.2-1.7.4-3 2-4 3.4l-1.3 1c-1.8 1.4-4.2.2-6-.4l-2.4-1.2-.3-.2c1.3-1 2.4-2.6 4.2-2.9zm-4.3 1.3c-.4.2-.9.1-1.3.2-.8 0-1.5-.5-2.2-.7-1.1-.6-2.3-1-3.5-1.2.2-.4.6-.5.9-1 .8-.4 1.7-1 2.8-1 1.8.3 3.3-.8 5.3-.3l.7.3c.6.2 1.2.6 1.8 1-.6.2-1.3.3-1.8.6-1 .5-1.8 1.3-2.7 2.1zm-11-11.8h-1.1l.9-.8a54.5 54.5 0 0 1 3.9-2.5c-.4.3-1 .5-1.4.9-.3.2-.8.5-1 .8-.5.4-1 .9-1.2 1.4l-.2.2zm-11-4.2c2.2-2.3 4.3-4.1 6.8-5.7.5.6.9 1 1.3 1.7L31 21.8c-.9.8-1.9 1.4-2.6 2.3l2.9 3.2.9-.7c2-1.9 4.4-3.3 6.6-4.9l-3.4-5.6c2.3-1.5 4.6-2.6 7-3.6.5.6.8 1.4 1 2.1l-4.6 2.1 2 4 .6-.3c-.6.5-1 1-1.4 1.7l-.6 1.8a49.2 49.2 0 0 0-6.7 5h-.4c-1.4.1-2.6.7-3.8 1.1l.8-.8-4.7-4.7zm-.5 9a34 34 0 0 1 5-2.5c2-.8 4-1.2 6.3-1 .5 0 1 .3 1.6.4 1.1.2 1.7 1.3 2.1 2.2 0 .1.2.1.1.3H39c-1.1-.2-2.3-.7-3.4-.8-2.2-.3-4.3-.1-6.3.2l-1.5.5c-.4 0-.9.3-1.4.4-1 .6-2 1-3.2 1.5l-.6.4c.3-.8 1.1-.9 1.6-1.6zM23 36.2l2.2-1.2c.6-.3 1.2-.4 1.7-.8.3 0 .6-.2.8-.3.7 0 1.2-.4 1.9-.5 1.9-.3 3.8-.4 5.6-.3 1 0 1.7.5 2.6.6.4.2.9.2 1.3.5h.2v.3a11 11 0 0 1-1.3 2c-.7.6-1.5 1.1-2.5 1.3l-2.1.7c-3 .7-6-.1-9.2-.1-1.2-.2-2.4 0-3.7 0v-.1l.2-.2c.7-.7 1.4-1.4 2.3-2zm-6.9-.6c1.3-2.5 3-4.8 5-7.1h.3c.5.5 1.1.8 1.5 1.3l-3.2 4.4v.1l1 .8c-.4.4-.9.8-1.1 1.3.1.4-.4.9 0 1.2l-3.5-2zm-2.6 4.8l.8.2.8.4-1.5 1-1.5 1.5 1.4-3zM8.8 50.8c0-.6.4-1.2.7-1.8 0-.1 0-.3.2-.4.2-.6.7-1 .9-1.5.2-.2.3-.6.5-.7 0-.2.2-.2.2-.3.7-1 1.6-1.6 2.4-2.6l2.3-1.7c.5-.4 1-.9 1.6-1.1.5-.4 1-.5 1.6-.8.8-.3 1.8-.3 2.7-.3 1.4-.2 3 .1 4.5.1l.8.1c1.7.2 3.3.4 5 .2 1.4 0 2.7-.5 4-1 .7-.3 1.5-.6 2-1.2.8-.7 1.4-1.6 2-2.6 0-.4.3-.6.2-1 0-.5.3-1 .1-1.5l-.2-1-.3-.5-.2-.4c.9 0 .9-1.3 1.8-1.3.9-.2 1.9 0 2.7.4l.1.1c.8.5 1.5 1.2 2 2 .6.4.7 1 1 1.5.2.3.2.7.5 1l.2.6c-1.4 0-2.6.5-3.8.6-1 0-1.9-.1-2.6.3-.5.1-1 .4-1.4.6-.1.2-.3.2-.5.3-.4.6-1 .8-1.4 1.4-.3.1-.4.5-.7.7-.1.3-.5.5-.5.8-.3.1 0 .4 0 .5 0 .1.2.4.5.3.8-.2 1.6-.6 2.5-.4 1.5.4 2.7 1.3 4.1 1.6 0 .5.2.8.5 1 1 .2 1.8.6 2.6 1l.7.3c.4 0 .8.4 1.2.5.7.3 1.4.7 2.2.8.3 0 .4.3.6.2l1.3.2a4 4 0 0 0 3-1c.2-.3.7-.4 1-.8.5-.4.7-1 1.2-1.5.5-.4 1-1 1.5-1.3.6-.4 1.4-.8 2.2-.4.2 0 .4.2.5.4 0 0-.2.3 0 .5h-.1l-.3.8c0 .4-.4.6-.3 1l-.2.4c-.2.2-.1.4-.3.7-.2.4-.6.7-.8 1.2l-1 1c-.2 0-.3.1-.4.3l-1.8.7c-.9.4-2 .7-2.9.5-1.2 0-2.5-.7-3.6-1.3l-2.7-1.5c-.5-.2-1-.4-1.5-.4a9 9 0 0 0-6 .4c-2 1-3.7 2.7-5.5 3.8-1.3 1-3.1 1.3-4.7.9-.4 0-.7-.3-1-.3-.5-.2-1-.4-1.3-.7.2-.5.3-1.1.6-1.6.2-.8.7-1.5 1.1-2.3.5-.7 1.1-1.6 1.9-2.1.6-.4 1.2-1 1.9-1.3.6-.3 1.1-.6 1.8-.7.3 0 .6-.2 1-.1.2-.1 0-.5.1-.7l-.4-.3c-.7 0-1.3.1-1.9.3-.6.2-.9.6-1.4.7-.7.7-1.7.4-2.3 1.1-.5.2-1 .6-1.6.7l-3.4-.8c-1-.3-2 0-2.9 0-1 .4-2 .3-2.9.9-1.3.7-2.6 1.2-3.8 2.1-.6.4-1.2.7-1.7 1.2-.1 0-.2 0-.3.2-1.5 1.1-3 2.5-4.1 4-.5.6-1.2 1.3-1.5 2h-.1c0-.6 0-1.2.3-1.7zm28.8 54.7l-.2.2-3.3 5.4h-.3a47.4 47.4 0 0 1-6.1-4.6v-.2l1.3-1.5 4 3 2.5-3.7-.2-.2c-2.4-1.5-4.5-3.5-6.5-5.5-1.7 1.4-3 3-4.7 4.5h-.3c-2-2-3.8-4.1-5.3-6.5a8 8 0 0 1 1.9-1.2c1 1.4 2 2.8 3.3 4.1l3.2-2.9c-2-2.4-3.9-5-5.4-7.6h-.1l-5.6 3h-.2l-1.8-3c-.7-1.6-1.6-3.1-2-4.7l2.1-.7 2.3 5h.1l3.8-2v-.1a37.1 37.1 0 0 1-3.4-8.9c-.4-.3-.8.1-1.1.2-1.9.4-3.6 1.1-5.5 1.4-.8-3-1.4-6-1.8-9.3.7-.2 1.5-.3 2.2-.3l1 6c1.4-.4 2.9-.6 4.3-.8l.1-.2c-.7-3.2-1.1-6.5-1.2-9.8V63c-2.2 0-4.3 0-6.5-.2-.2-1.1 0-2.2.1-3.4l.4-3.1.4-.1c.7-.2 1.4-.6 2-.9-.2 1.5-.5 3-.5 4.4l3 .3H15l.2-1.8.6-.3c0 1.2.3 2.1 1 3l.2.1a47.1 47.1 0 0 0 20.5 42l.4 1.5c.5.7.9 1.5 1.5 2.2l-1.8-1zm4.6 2.3c-.7-.6-1.7-1-2.1-1.9-.3-.2-.5-.6-.8-.7l-.1-.4c-.6-.5-.6-1.4-.8-2.1 0-.9-.4-1.9-.1-2.7 0-.5 0-1.2.2-1.6l.4-2.2V96l.2-.9.1-.5h.1c.2.1.5.4.8.3.2 0 .3-.3.3-.5v-.1l-.1-.4c-.2-1.1-1.5-1.8-2.5-2.4-1-.5-2-1.4-1.9-2.8V88h.2c.1.5.5 1 1 1.5.2.2.4.5.8.6.7.6 1.6.7 2 1.6.4.4.6 1 .8 1.5.2.6.2 1.2.3 1.9 0 .6.2 1.4 0 2.1v.5c-.2.1 0 .3 0 .5l-.1 1.2c.2 1.2-.3 2.6.2 3.8 0 .3.2.5.1.8.2.3.3.7.7 1 0 .1 0 .3.3.3.1.1.2.3.4.3.6 0 1 .3 1.6.3 2-.4 3.6-1.5 5.3-2.2 1.3-.8 2.6-1.6 4-2.2 1-.7 2.2-1 3.4-1.6.6-.2 1.2-.2 1.9-.5.6 0 1.4-.1 2 .2.4 0 .7.3 1.2.4v1.4c-1 .2-2-.5-3.2-.2-.7 0-1.3.4-1.9.6-.5.4-1.1.5-1.7.9-.7.2-1.4.7-2 1.2-.6.2-1.1.6-1.8.8-.7.3-1 .6-1.7.8l-.6.3-.7.2-.5.1c-.6 0-1.1.3-1.7.4-.2.1-.4.2-.3.4l.2.1c.3.3.8.3 1.2.3.9-.2 1.8-.3 2.5-.6 1-.6 2.2-1 3.3-1.6l.6-.3.5-.4c1-.8 2.5-1.2 3.7-1.9l.8-.2c0 .1-.2.2 0 .3h-.2c0 .3-.2.5 0 .8v.4c-.7.1-1.3.5-2 .6l-1.8.8c0 .2-.3.2-.4.3l-2.6 1.5c0 .2-.3.2-.3.2l-1.1.6-1.6.7c-1.5.4-3 .4-4.6 0-.6 0-1.2-.4-1.9-.6zm36.8 3c.5 2 1.3 4 1.9 6v.4c-2.3.8-4.6 1.4-7 1.8l-.5-2.2 4.3-1 .2-.1-1.2-4.2c-2.6.5-5.2 1.2-8 1.4l-.3.3.6 6.3-.2.2c-2.4.3-5 .3-7.3.1-.2-.8-.1-1.6 0-2.3 1.7 0 3.2.2 4.9 0 0-1.4 0-3-.2-4.4-2.8 0-5.5 0-8.2-.3l-1 6.7c-2.5-.3-5-.8-7.4-1.5l.5-2.2 4.8 1h.2c.1-1.5.5-3 .6-4.4-1.3-.2-2.7-.4-4-.8l-4.3-1.3-.1.1-2.2 6-.2.2c-1.9-.7-3.7-1.5-5.5-2.4-.5-.3-1.1-.5-1.5-1l1-1.8 4.6 2.2 1.6-4a9.1 9.1 0 0 0 4.8-.6l2.7.8a47.8 47.8 0 0 0 25.9-.8s.1.1.2 0l1 .3 1.7.1h1.2l-3.6 1.4zm7.4-4.1l-1.3.8c-1.1.5-2.5.8-3.8.6-1 0-2.1-.3-3.3-.4l-2.7-1.2c-.5-.3-1.2-.7-1.6-1.2-.8-.6-1.5-1.6-2.5-2-.7-.6-1.4-1-2.3-1.4l-.3-.2c0-.1.3 0 .4 0h.9c0 .2.1.1.2.1.7.2 1.2.5 1.8.8.2 0 .3.3.5.3.2.4.7.7 1.1 1l1.5 1 1.6 1c.3 0 .6.4 1 .4a11.4 11.4 0 0 0 6.5.9c.4-.4 1-.6 1-1.2-.4-.3-.8.2-1.2 0-1.3.3-2.5.2-3.7-.1-.5 0-1-.3-1.4-.4-.4-.2-1-.3-1.4-.6l-2.3-1.4-1.5-1.1-1.4-1c-1-.5-2-.9-3.2-.9-.6 0-1.1 0-1.6.3l-.5-.5v-.1l1.5-.5c.4-.3 1-.2 1.5-.4 1.2-.1 2.3.3 3.5.6l3.7 1.6c1.9.8 3.5 2.2 5.7 2.6l.4.1h.6c.2 0 .5 0 .7-.2.4 0 1 0 1.1-.5l1-1.7c.2-.2 0-.6.3-.9.5-1.4.5-3 .6-4.6v-1-1c.2-.2.2-.5.3-.8.1-1 .7-1.8 1-2.6.4-.8.6-1.5.8-2.3 0-.1 0-.2.2-.3.2-.4.5-.8.9-1l1.5-1.4v.5c.4 1.9-.4 3.4-1.3 4.8-.6.7-.7 1.4-1 2.2-.1.6-.4 1.1-.2 1.8.1 1.4-.1 2.7-.1 4.3-.1 1-.4 2-.7 3-.3.7-.4 1.5-1 2.1-.2 1-.9 1.5-1.5 2zm33.4-41.4c.2 1.1 0 2.2-.1 3.4-.2 1.8-.4 3.7-1 5.4-.6 0-1.3-.2-2-.4.2-1.8.7-3.5.7-5.3l-3-.3H113c-.2 3.4-.9 6.4-1.7 9.5l6.3 2c-.8 2.7-1.9 5.4-3.1 8l-.8-.2c-.4-.3-1-.3-1.2-.7l2-4.8-4.1-1.4h-.2a47.8 47.8 0 0 1-3.9 8.3v.3l5.5 3.2c-1.2 2.6-3 5-5 7.2h-.2c-.5-.5-1.1-.8-1.5-1.3l3.2-4.4v-.1c-1-.9-2.3-1.5-3.4-2.3h-.2c-1.8 2.6-4 5.1-6.1 7.4l4.7 4.7a36.2 36.2 0 0 1-6.8 5.7c-.5-.5-1-1-1.3-1.7l1.7-1.3c.9-.8 1.9-1.4 2.6-2.3l-2.9-3.3-.9.8c-2 1.9-4.4 3.3-6.7 4.9 1.2 1.9 2.4 3.7 3.4 5.7a41 41 0 0 1-7 3.5c-.4-.6-.7-1.3-.8-2.1l4.4-2.1-1.9-3.7 1.1-1c.5-.2.5-.8.8-1.1l.8-1.7.1-.2.1-.5c4.2-2.8 7.9-6.2 11-10.1a48.4 48.4 0 0 0 9.5-36.4l.5-.5c0-.2.3-.3.3-.5s.1-.4.3-.5l.4.6.5.4c.5 2.4.7 4.8.8 7.3V65c2.2 0 4.3 0 6.5.2zm-4.1-8.7h-.4a8 8 0 0 1-2.7-2c-1-1.1-1.7-2.6-2.6-3.9l-.8-1.4-1-2s-.2 0 0-.1l-2-2c-.7-.5-1.2-.8-1.8-1 .7-.3 1.1-1.3 2-1.5.2-.1.4-.3.3-.5 0-.2-.3-.3-.4-.2a5 5 0 0 1-1.9-1.4c-.4-.8-1-1.1-1.4-1.8l-.3-.3c.5 0 1 .3 1.5.7 1.9.8 3.2 2.6 4.5 4l.7 1 1 1.6 1 1.4 1.7 2.7.2.3c.2.3.5.5.6.9.4.2.7.6 1 1l1.6 1.6 2.9 2.2c.1.2.3.3.2.5v.3c-.3.2-.5.5-1 .5-.6-.2-1.4-.4-2-.8l-1 .2zm1.8 2l-.2-.7h.3c.2.2.5.2.7.3l1.3-.2v.3c-.6.2-1.4.3-2.1.3zm1-10.1c.3.7.8 1.4 1 2.2l.3 1.4.2.7c-.1.3.1.5 0 .8l.2 1-.1.6c-.3-.1-.4-.4-.7-.6-.5-.5-1.1-.6-1.5-1.3-.2-.2-.6-.2-.7-.4-.2-.1-.4-.4-.6-.4-.3-.4-.6-.5-.8-1l-1-.8c-.4-.5-.8-1-1-1.6l-.7-.7c-.2-.4-.7-.7-.7-1.2l-.1-.3c-.4-.3-.5-.7-.8-1 0-.4-.6-.5-.6-1-.4-.4-.4-1.3-1-1.4-.5-.6-1-1.4-1.6-1.9l-.5-.6-1.6-1.5c-1.1-.7-2.2-1.5-3.5-1.7-.5-.2-1.1 0-1.4-.4L100 37a14 14 0 0 0-5.2-.8l-2.3-.1c-.7-.1-1.4-.3-2.2-.3h-.1c-1.3-.5-2.7-.6-4.1-.5-1.7 0-3 .8-4.6 1.1-.7.2-1.1.7-1.9.6-.5.3-.8-.2-1.2-.4-3.2-1.1-6.7.6-9.8-.6l-.3-.2c-.4-.3-1-.5-1-.9.4.2.9.1 1.3.2.6 0 1.2 0 1.6-.3l.3-.1c.9-.2 1.5-.8 2.3-1l1.6-.8c.8-.4 1.8-.6 2.7-.8 1-.2 2 .1 2.8.4a6 6 0 0 0 4.9-.8c.4.4 1 .6 1.4 1.1.8.5 1.5 1.1 2.4 1.4.5.5 1.3.5 2 .8l2.7.5h.5l3.9.5c1.2 0 2.3.4 3.7.3l4 1.1c.9.5 1.8.6 2.6 1.3.6.4 1.4.7 2 1.3.5.2.8.7 1.2 1 .4.3.8.5 1.1.9 1.2.8 2 2 3.2 2.8.2.5.9.8 1 1.3.4 1 1.6 1.5 1.8 2.6zM112.1 36h.2l1.3 2.2-.5-.4-1.6-1.4.6-.4zm-3.2-.4c1 .5 1.7 1.2 2.6 1.9l1 .8c.5.4.9 1 1.4 1.3.8.7 1 1.6 1.9 2.3.1.4.6.7.6 1.2.2.1.1.4.3.6.3.4.4.8.4 1.3l-2.2-2.2-2-1.8-1.7-1.4-3-1.8-.1-.1c-1.7-1-3.8-1.6-5.7-2.1-1-.3-2.4-.3-3.4-.5l-5.3-.6a18 18 0 0 1-4.6-1l-2-1c-.4-.3-.8-.7-1-1.2v-.2l1.4.9c1.3.7 3 .4 4.4.4 0 .2.1 0 .2 0h5.4l1-.2c.3 0 .7 0 1 .2.7.2 1.6-.1 2.3.2l2.4.7c.5.3 1 .3 1.4.6.5.1.8.2 1.1.5.8.3 1.6.6 2.2 1.2zm-6-3.6l-.4-.4 1.6-1.3h.2c1 .9 1.9 2.4 2.8 3.4l-2.8-1.1-1.5-.6zm4.7.7c-1.2-1.4-2-2.8-3.3-4l-3.3 2.8h.1l-1-.3c-.5-.2-.9-.7-1.3-1l-1.5-1c-.4-.3-.8-.5-1-.8-1.4-1-2.5-2.8-4-3.6-1-.3-2-.8-3-.7-1.4-.6-2.8-1.3-4-2.2l-1.2-1a9.2 9.2 0 0 0-6.4-3c-.4 0-.9.2-1.2.1-1.1-1.8-3.3-2-5.2-2.7-.5-.2-1-.6-1.2-1l.7-5.9c2.6.3 5.1.8 7.5 1.5l-.6 2.1-4.7-1h-.2c-.1 1.5-.5 3-.7 4.4 1.4.3 2.8.4 4.2.8l4.2 1.3h.1l2.2-6.1.1-.1c2 .6 3.8 1.4 5.6 2.3.5.3 1.1.5 1.5 1l-1 1.8c-1.5-.6-3-1.5-4.6-2.1-.7 1.3-1.1 2.7-1.6 4 2.6 1.2 5 2.6 7.5 4h.2c1-2 2.2-3.7 3.3-5.5h.3c2.1 1.4 4.2 2.9 6.1 4.6v.2L99 23.2l-4-3-2.5 3.7.2.2c2.4 1.6 4.4 3.5 6.5 5.5l4.7-4.5h.2c2 2 3.8 4.1 5.3 6.5-.5.5-1.1 1-1.8 1.2zm5.6 30.6zM58.2 83.7v.3c.6.2 1.2.2 1.8 0 .7-.2.8-.5 1.6-.6h.5c.2-.1.3 0 .6.1s.3.3.8.2c1.3-1 2.5.5 3.8.3l.5-.1c0-.2 0-.4-.2-.4-1 0-1.7-1-2.7-1-.7-.3-1.2.3-1.8.4-1.4-1-2.2.2-3.4.5-.4.2-1.2-.1-1.5.3zm10.1 3.9c-1 .3-1.9.5-2.9.5-1.2.1-2 0-3-.2-1.5-.1-2.7.5-4.2.2-.4 0-.7-.4-1.1-.4-.2 0-.3 0-.3.2l.2.4c1 .8 2.4.9 3.5.6 1-.3 1.8 0 2.6 0 1.7.4 3.4 0 5-.5.2-.1.8-.2.8-.7 0-.2-.4-.4-.6-.1zM124 62.2A60.3 60.3 0 0 0 70.5 4.3 60.3 60.3 0 0 0 4 62.3V65.6a60.3 60.3 0 0 0 53.5 58 60.3 60.3 0 0 0 66.5-58V65v-2.8zm-1.2 3.6a59.4 59.4 0 0 1-52.7 56.8l-6.6.4A59.3 59.3 0 0 1 5.2 62.3 59.4 59.4 0 0 1 57.8 5.4c2-.3 4.5-.4 6.6-.5a59.4 59.4 0 0 1 58.3 60.7zm-62.1 4c0 .7.2 1.5 0 2.3 0 .7-.2 1.5-.5 2.3-.2 1.4-.3 2.7.4 3.9.4.9 1.4 1 2.2 1.2.5 0 1-.1 1.4-.4v-.4h-1.6c-.8-.2-1.2-.7-1.4-1.4-.7-2 .5-2.9.4-4.9v-1c0-1.3-.4-2.9 0-4.2v-2.6c0-.5-.4-.9-.3-1.2L61 63l-.3.1v.2 2.8c0 1.3-.5 2.3-.1 3.5zm2 11.6l-.2.4c.6.3 1.4.6 2 .1 0-.2.2-.3.1-.5l-.2-.1c-.4.3-1.1.3-1.7.1zm-3-1.4c.6-.2 1.2.1 1.8.3l.2-.3-.4-.3c-.8-.8-2.2-.7-3.3-.3-.3 0-.5.2-1 0l-.4-.8c0-.2-.3-.1-.4 0-.2.5 0 1 .3 1.3 1 1 2.1.1 3.2 0zm22-17.1c-.6.6-1.2 1-2 1-1 0-1.5-.3-2.5-1.1l-1.4-.9c-1.2-.7-2.4-.6-4-.4-.6.2-1.4.7-2 1.1a4 4 0 0 0-1 .7l-.3.5s0 .3.1.2l.3-.1.1-.1h.1v-.1l.4-.2a6.3 6.3 0 0 1 6.1-.6c1.2.5 1.9 1.3 2.1 1.5 0 .2-1.1-.7-1.6-.8a8 8 0 0 0-4-.5c-1.2.2-2.5 1-3.3 2l-.2.4c0 .1-.2.3 0 .5h.3l.6-.7a6.5 6.5 0 0 1 6.6-.7c.3.2.7.3.9.7 0 .5.3 1-.1 1.3l-.9.4c-1.2.8-2.8.7-4.4.4-.6-.1-.7-.6-1-1-.1-.5.1-1.2-.5-1.4l-.2.2c-.4.6 0 1 0 1.6-.4-.1-1.1-.1-1.3-.6h-.2c-.2.2 0 .4 0 .6.1.4.4.4.7.6.9.1 1.8.5 2.6.7 1.6.5 3.5.2 4.9-.5.8-.4 1.3-.7 2-1.3.2 0 .4-.2.5-.3.1-.1 0-.2.2-.3 0-.3-.1-.3-.3-.4l-.6-.4-.4-.3h2c.6-.2 1.2-.2 1.6-.9.2 0 .2-.3.4-.4l.4-.7-.1-.4c-.3 0-.5.4-.6.7zm-3.3 2.8l-.7.4-.1-.9.8.5zm-8 18.8c-.5.2.2.5 0 .8l-1.7.5c-1.3.3-2.6-.5-4-.6-.7 0-1.1.6-1.9.7-.8-.4-1.7-.8-2.7-.6-.9.1-1.6.5-2.4.5-.7 0-1.5.2-2.2-.2l.1-.2v-.3c-.4-.2-.7.2-1 .5-.1.4-.6.5-.5 1 0 0 .2.2.4.1l.5-.4.5.1c1.6 1 3-.2 4.5-.3 1-.3 1.8.2 2.5.5.6.3 1.2-.1 1.6-.4.5-.5 1.3-.2 1.8 0 .7.5 1.9.4 2.8.3l2.4-.7.5.3c.1 0 .3 0 .3-.2s-.1-.4-.3-.5c-.3-.3-.6-1-1.3-1zm-2.5-21.7c.7-.2 1.5-1 2-1.4.5-.6 1-1 1.9-1.3l1.5-.4c.8 0 1.5 0 2.1.3.8.1.8.2 1.6.5l1.3.4 1.2.5c1.3.1 1.7 0 2.9-.5l.2-.1c0-.1.2-.3 0-.3-.7 0-1.3.3-2 .2l-1.4-.2-2.1-.9-2.5-.8h-1.9c-.9.2-1.7.6-2.4 1.1l-.9.9c-.7.5-1.2 1.2-2 1.5l-.3.2c.2.3.5.2.8.3zm-3 17h1.4c.9 0 1.5 0 2.3-.5.6-.4.7-1.2.6-1.8l-.1-.2c-.6 0-.5.7-.6 1-.6.8-1.5.7-2.6.8l-1.1.3c-.2 0-.4.1-.3.3.1 0 .2.2.3.1zm3.5-10.1h.2v-.1-.6l-.5-.7-1-2.5c0-.2-.2-.3-.4-.4l-.2.2c0 .7.3 1.4.5 2 .4.8.7 1.7 1.4 2z"></path>
</svg>
