<?xml version="1.0" standalone="no"?>
<!DOCTYPE svg PUBLIC "-//W3C//DTD SVG 1.1//EN" "http://www.w3.org/Graphics/SVG/1.1/DTD/svg11.dtd">
<svg xmlns="http://www.w3.org/2000/svg">
<metadata>Copyright (C) 2018 by original authors @ fontello.com</metadata>
<defs>
<font id="fontello" horiz-adv-x="1000" >
<font-face font-family="fontello" font-weight="400" font-stretch="normal" units-per-em="1000" ascent="850" descent="-150" />
<missing-glyph horiz-adv-x="1000" />
<glyph glyph-name="customer-service" unicode="&#xe800;" d="M639 259a33 33 0 1 1-67 0 74 74 0 0 0-148 0 33 33 0 1 1-67 0 141 141 0 0 1 282 0z m235 290a383 383 0 0 1-748 0 220 220 0 0 1 94-419h38v441h-38c-6 0-13-1-19-2a317 317 0 0 0 598 0c-6 1-13 2-19 2h-37v-441h30a318 318 0 0 0-180-143 100 100 0 1 1 2-69 384 384 0 0 1 259 225 220 220 0 0 1 20 406z m-684-349l-8 2a153 153 0 0 0 0 296l8 2v-300z m310-283a33 33 0 1 0 33 33 33 33 0 0 0-33-33z m318 285l-8-2v300l8-2a153 153 0 0 0 0-296z" horiz-adv-x="1000" />

<glyph glyph-name="feedback" unicode="&#xe801;" d="M500 850c-276 0-500-202-500-451 0-157 89-295 224-376 37-22-53-173-53-173s275 98 329 98c276 0 500 202 500 451s-224 451-500 451z m0-836c-35 0-123-25-206-52 13 57 1 96-36 118-120 72-191 191-191 319 0 212 194 384 433 384s433-172 433-384-194-385-433-385z m-215 419a50 50 0 1 1 50-50 50 50 0 0 1-50 50z m215 0a50 50 0 1 1 50-50 50 50 0 0 1-50 50z m215 0a50 50 0 1 1 50-50 50 50 0 0 1-50 50z" horiz-adv-x="1000" />

<glyph glyph-name="create" unicode="&#xe802;" d="M847 50h-99v100a33 33 0 1 1-66 0v-100h-99a33 33 0 0 1 0-67h99v-100a33 33 0 1 1 66 0v100h99a33 33 0 0 1 0 67z m-66 800h-562a100 100 0 0 1-99-100v-800a100 100 0 0 1 99-100h364a33 33 0 0 1 0 67h-364a34 34 0 0 0-33 33v800a34 34 0 0 0 33 33h562a34 34 0 0 0 33-33v-599a33 33 0 1 1 66 0v599a100 100 0 0 1-99 100z m-496-267h265a33 33 0 0 1 0 67h-265a33 33 0 0 1 0-67z m0-400h265a33 33 0 0 1 0 67h-265a33 33 0 0 1 0-67z m0 200h397a33 33 0 0 1 0 67h-397a33 33 0 0 1 0-67z" horiz-adv-x="1000" />

<glyph glyph-name="message" unicode="&#xe803;" d="M286 617h150a33 33 0 0 1 0 66h-150a33 33 0 0 1 0-66z m0-334h249a33 33 0 0 1 0 67h-249a33 33 0 0 1 0-67z m0 167h199a33 33 0 0 1 0 67h-199a33 33 0 0 1 0-67z m507 205c-115 0-208-80-208-179 0-62 37-117 93-149 15-9-22-68-22-68s114 38 137 38c114 0 207 80 207 179s-93 179-207 179z m0-308a285 285 0 0 1-64-13c0 0 0 0 0 0a57 57 0 0 1-27 36c-42 25-67 64-67 106 0 71 71 129 158 129s157-58 157-129-71-129-157-129z m-90 149a25 25 0 1 1 25-25 25 25 0 0 1-25 25z m90 0a25 25 0 1 1 24-25 25 25 0 0 1-24 25z m89 0a25 25 0 1 1 25-25 25 25 0 0 1-25 25z m-131-256a33 33 0 0 1-33-33v-57h-532v633h532v-60a33 33 0 1 1 66 0v60a67 67 0 0 1-66 67h-532a67 67 0 0 1-66-67v-866a67 67 0 0 1 66-67h532a67 67 0 0 1 66 67v290a33 33 0 0 1-33 33z m-33-323h-532v166h532v-166z m-266 41a42 42 0 1 1-41 42 42 42 0 0 1 41-42z" horiz-adv-x="1000" />

<glyph glyph-name="structure" unicode="&#xe804;" d="M505 83a117 117 0 1 1 117-116 117 117 0 0 1-117 116z m0-166a50 50 0 1 0 50 50 50 50 0 0 0-50-50z m318 166a117 117 0 1 1 117-116 117 117 0 0 1-117 116z m0-166a50 50 0 1 0 50 50 50 50 0 0 0-50-50z m-636 166a117 117 0 1 1 117-116 117 117 0 0 1-117 116z m0-166a50 50 0 1 0 50 50 50 50 0 0 0-50-50z m0 216a33 33 0 0 1 34 34s0 0 0 0v179a38 38 0 0 0 37 37h214v-216a34 34 0 0 1 67 0v216h213a38 38 0 0 0 37-37v-179a34 34 0 0 1 67 0v179a105 105 0 0 1-104 104h-213v172a117 117 0 1 1-67 0v-172h-214a105 105 0 0 1-104-104v-179a33 33 0 0 1 33-34z m268 600a50 50 0 1 0 50-50 50 50 0 0 0-50 50z" horiz-adv-x="1000" />

<glyph glyph-name="edit" unicode="&#xe805;" d="M966 816a116 116 0 0 1-164 0l-421-422 1 0a38 38 0 0 1-11-19l-44-165c-7-27 9-43 36-36l164 45a37 37 0 0 1 19 10l0 0 420 422a117 117 0 0 1 0 165z m-47-118l-416-417-95-25 25 95 416 418a50 50 0 0 0 70-71z m-102-748a34 34 0 0 0-33-33h-564a34 34 0 0 0-34 33v717a34 34 0 0 0 34 33h372l67 67h-439a100 100 0 0 1-100-100v-717a100 100 0 0 1 100-100h564a100 100 0 0 1 100 100v524l-67-66v-458z" horiz-adv-x="1000" />

<glyph glyph-name="delivery" unicode="&#xe806;" d="M537 321a250 250 0 1 1-277-1 402 402 0 0 1-260-377 33 33 0 1 1 67 0v0a333 333 0 1 0 666 0v0a33 33 0 1 1 67 0 402 402 0 0 1-263 378z m-140 24a184 184 0 1 0 183 184 184 184 0 0 0-183-184z m404 14a167 167 0 0 1-64 290v0a33 33 0 0 1-9 2 34 34 0 0 1-8-66v0a100 100 0 0 0-23-197c-1 0-1 0-1 0a34 34 0 0 1-2-69v0a268 268 0 0 0 239-266s0 0 0 0a33 33 0 1 1 67 0 335 335 0 0 1-199 306z" horiz-adv-x="1000" />

<glyph glyph-name="diagnosis" unicode="&#xe807;" d="M858 583h-715a104 104 0 0 1-103-104v-525a104 104 0 0 1 103-104h715a104 104 0 0 1 102 104v525a104 104 0 0 1-102 104z m36-629a38 38 0 0 0-36-37h-715a38 38 0 0 0-37 37v525a38 38 0 0 0 37 38h715a38 38 0 0 0 36-38v-525z m-575 792a38 38 0 0 0 37 37h288a38 38 0 0 0 37-37v-96h66v96a104 104 0 0 1-103 104h-288a104 104 0 0 1-102-104v-96h65v96z m247-329h-132v-134h-131v-133h131v-133h132v133h131v133h-131v134z" horiz-adv-x="1000" />

<glyph glyph-name="home" unicode="&#xe808;" d="M993 348l-468 490a31 31 0 0 1-45 0l-468-490a34 34 0 0 1 0-47 31 31 0 0 1 44 0l30 31v-419a66 66 0 0 1 67-66h183a66 66 0 0 1 67 66v274h200v-274a66 66 0 0 1 66-66h184a66 66 0 0 1 66 66v419l30-31a31 31 0 0 1 44 0 34 34 0 0 1 0 47z m-140-435h-184v274a66 66 0 0 1-66 66h-200a66 66 0 0 1-67-66v-274h-183v489l350 366 350-366v-489z" horiz-adv-x="1000" />

<glyph glyph-name="link" unicode="&#xe809;" d="M883 736a256 256 0 0 1-368 0l-115-116a261 261 0 0 1 0-371l1-1a33 33 0 0 1 56 15 34 34 0 0 1-9 32l-1 1a193 193 0 0 0 0 277l115 116a191 191 0 0 0 274 0 195 195 0 0 0-1-277l-89-85a34 34 0 0 1 0-48 33 33 0 0 1 47 0l89 85a261 261 0 0 1 1 372z m-294-294a33 33 0 0 1-55-15 34 34 0 0 1 8-32l1-1a193 193 0 0 0 0-277l-114-116a191 191 0 0 0-274 0 195 195 0 0 0 0 277l89 85a34 34 0 0 1 0 48 33 33 0 0 1-46 0l-90-85a261 261 0 0 1 0-372 256 256 0 0 1 367 0l115 116a261 261 0 0 1 0 371z" horiz-adv-x="1000" />

<glyph glyph-name="templet" unicode="&#xe80a;" d="M286 619h165a33 33 0 0 1 0 66h-165a33 33 0 0 1 0-66z m429-67h-429a33 33 0 0 1 0-67h429a33 33 0 0 1 0 67z m0-133h-429a33 33 0 0 1 0-67h429a33 33 0 0 1 0 67z m-165-134h-264a33 33 0 0 1 0-66h264a33 33 0 0 1 0 66z m227 565h-554a104 104 0 0 1-103-104v-792a104 104 0 0 1 103-104h554a104 104 0 0 1 103 104v792a104 104 0 0 1-103 104z m37-896a38 38 0 0 0-37-37h-554a38 38 0 0 0-37 37v792a38 38 0 0 0 37 37h554a38 38 0 0 0 37-37v-792z" horiz-adv-x="1000" />

<glyph glyph-name="copy" unicode="&#xe80b;" d="M267 619h167a33 33 0 0 1 0 66h-167a33 33 0 1 1 0-66z m334-67h-334a33 33 0 1 1 0-67h334a33 33 0 1 1 0 67z m0-133h-334a33 33 0 1 1 0-67h334a33 33 0 1 1 0 67z m166-332v659a104 104 0 0 1-104 104h-459a104 104 0 0 1-104-104v-659a104 104 0 0 1 104-104h459a104 104 0 0 1 104 104z m-600 0v659a38 38 0 0 0 37 37h459a38 38 0 0 0 37-37v-659a38 38 0 0 0-37-37h-459a38 38 0 0 0-37 37z m700 596a33 33 0 0 1-34-33h0v-696a38 38 0 0 0-37-37h-496a33 33 0 0 1 0-67h496a104 104 0 0 1 104 104v696a33 33 0 0 1-33 33z" horiz-adv-x="1000" />

<glyph glyph-name="add" unicode="&#xe80c;" d="M967 383h-434v434a33 33 0 0 1-33 33h0a33 33 0 0 1-33-33v-434h-434a33 33 0 1 1 0-66h434v-434a33 33 0 0 1 33-33h0a33 33 0 0 1 33 33v434h434a33 33 0 1 1 0 66z" horiz-adv-x="1000" />

<glyph glyph-name="delete" unicode="&#xe80d;" d="M437 28v543a34 34 0 0 1-69 0v-543a34 34 0 0 1 69 0h0z m-69 754h274a34 34 0 1 1 0 68h-274a34 34 0 1 1 0-68h0z m445-178a34 34 0 0 1-34-34l-21-598c0-37-17-54-55-54h-396c-38 0-55 17-55 54l-21 598a34 34 0 0 1-68 0l21-638c0-37 45-82 83-82h476c38 0 83 45 83 82l21 638a34 34 0 0 1-34 34h0z m103 137h-822a34 34 0 1 1 0-69h822a34 34 0 1 1 0 69h0z m-274-713v543a34 34 0 0 1-69 0v-543a34 34 0 0 1 69 0h0z m0 0" horiz-adv-x="1000" />

<glyph glyph-name="export" unicode="&#xe80e;" d="M822 513h-142v-66h142a33 33 0 0 0 33-33v-470a33 33 0 0 0-33-33h-634a33 33 0 0 0-33 33v470a33 33 0 0 0 33 33h142v66h-142a98 98 0 0 1-98-99v-470a98 98 0 0 1 98-98h634a98 98 0 0 1 98 98v470a98 98 0 0 1-98 99z m-481 94h0l131 132v-535a33 33 0 1 1 66 0v535l131-132h0a33 33 0 1 1 47 48l-176 176a50 50 0 0 1-70 0l-176-176a33 33 0 0 1 0-48 33 33 0 0 1 47 0z" horiz-adv-x="1000" />

<glyph glyph-name="preview" unicode="&#xe80f;" d="M500 730c-275 0-500-285-500-380 0-126 225-380 500-380s500 285 500 380-225 380-500 380z m306-559c-55-50-169-135-306-135-241 0-433 226-433 314 0 19 38 97 127 179 55 50 169 135 306 135s251-85 306-135c89-82 127-160 127-179 0-19-38-97-127-179z m-306 344a165 165 0 1 1 167-166 165 165 0 0 1-167 166z m0-264a100 100 0 0 0-100 100 98 98 0 0 0 100 98 100 100 0 0 0 100-100 98 98 0 0 0-100-98z" horiz-adv-x="1000" />

<glyph glyph-name="notice" unicode="&#xe810;" d="M834 220c-5 15-12 47-12 105v106c0 137-79 262-196 315a128 128 0 0 1-252-1c-115-55-196-181-196-314v-104c0-63-7-94-11-107a86 86 0 0 1-67-83 88 88 0 0 1 89-87h622a86 86 0 0 1 23 170z m-23-103h-622a21 21 0 0 0-22 20 20 20 0 0 0 16 18l35 9 12 35c10 29 15 72 15 128v104c0 105 65 210 158 254l31 15 6 35a61 61 0 0 0 120 0l6-35 32-14c94-43 158-146 158-255v-106c0-67 8-106 15-126l11-35 35-8a20 20 0 0 0 16-19 21 21 0 0 0-22-20z m-211-100a33 33 0 0 1-33-34 67 67 0 0 0-134 0 33 33 0 1 1-66 0 133 133 0 1 1 266 0 33 33 0 0 1-33 34z" horiz-adv-x="1000" />

<glyph glyph-name="cooperation" unicode="&#xe811;" d="M998 512l-151 246a32 32 0 0 1-30 15l-381-42a33 33 0 0 1-17-7l-36-30-106 77a32 32 0 0 1-42-4l-224-240a31 31 0 0 1-4-38l55-89-6-4a83 83 0 0 1 19-141 83 83 0 0 1 63-103 82 82 0 0 1 15-74 82 82 0 0 1 77-29 82 82 0 0 1 18-56 84 84 0 0 1 118-12l20 16 47-53c1-1 2-1 3-2a94 94 0 0 1 63-25c2 0 3 0 4 0a94 94 0 0 1 65 30 88 88 0 0 1 17 27 95 95 0 0 1 128 9 93 93 0 0 1 19 31 101 101 0 0 1 44-9 94 94 0 0 1 65 30 92 92 0 0 1 24 75 93 93 0 0 1 49 27 92 92 0 0 1-4 131l-57 58 141 149a30 30 0 0 1 4 37h0z m-818-151l-58-46a20 20 0 0 0-16-5 21 21 0 0 0-14 8 20 20 0 0 0 3 29l58 46a21 21 0 0 0 13 5c1 0 2 0 3 0a21 21 0 0 0 14-8 20 20 0 0 0-3-29h0z m-37-112l58 46a21 21 0 0 0 13 5 12 12 0 0 0 2 0 21 21 0 0 0 14-8 20 20 0 0 0-3-29l-58-46a20 20 0 0 0-16-5 21 21 0 0 0-14 8 20 20 0 0 0 4 29h0z m73-139a21 21 0 0 0-11 36l58 47a21 21 0 0 0 13 4c1 0 2 0 3 0a20 20 0 0 0 14-7 21 21 0 0 0 4-16 20 20 0 0 0-7-13l-58-47a20 20 0 0 0-16-4h0z m110-81a21 21 0 0 0-29 3 21 21 0 0 0 3 29l58 47a21 21 0 0 0 13 4 9 9 0 0 0 3 0 21 21 0 0 0 18-23 21 21 0 0 0-8-13z m542 150a31 31 0 0 0-43-2l-61 56 0 0a31 31 0 0 1-44-2 31 31 0 0 1 1-44l61-55a3 3 0 0 1 0-1l12-10a31 31 0 0 0 1-44 31 31 0 0 0-21-10 30 30 0 0 0-23 9l-41 38a11 11 0 0 1-1 1l-43 38a32 32 0 0 1-44-2 31 31 0 0 1 2-43l43-40a31 31 0 0 0 1-43 31 31 0 0 0-44-1l-90 82a32 32 0 0 1-44-2 31 31 0 0 1 1-44l27-25a36 36 0 0 0 12-23 29 29 0 0 0-7-23 32 32 0 0 0-43-2l-46 50a81 81 0 0 1 21 46 82 82 0 0 1-18 61 83 83 0 0 1-56 30 87 87 0 0 1-21 0 83 83 0 0 1-66 83 82 82 0 0 1-15 74 84 84 0 0 1-32 24 82 82 0 0 1-15 74 84 84 0 0 1-118 13l-2-2-39 62 189 203 71-53-87-73a31 31 0 0 1-9-36c2-3 34-76 119-79a288 288 0 0 1 171 46l200-146 139-141a30 30 0 0 0 2-44h0z m-59 191l-38 39a28 28 0 0 1-4 4l-195 142a31 31 0 0 1-10 29 32 32 0 0 1-44-2c-2-2-58-59-159-56a70 70 0 0 0-51 24l144 120 352 39 128-209z m0 0" horiz-adv-x="1000" />

<glyph glyph-name="andrews" unicode="&#xe812;" d="M131 536a62 62 0 0 1-61-62v-242a61 61 0 1 1 122 0v242a62 62 0 0 1-61 62z m98-444a48 48 0 0 1 48-47h54v-134a61 61 0 1 1 123 0v134h95v-134a61 61 0 1 1 122 0v134h55a48 48 0 0 1 47 47v442h-544v-442z m640 444a62 62 0 0 1-61-62v-242a61 61 0 1 1 122 0v242a62 62 0 0 1-61 62z m-240 226l50 73a9 9 0 0 1-1 13 9 9 0 0 1-13-3l-52-76a314 314 0 0 1-226 0l-52 76a9 9 0 0 1-13 3 9 9 0 0 1-1-13l50-73c-80-37-136-107-143-189h544c-7 82-63 152-143 189z m-244-114a30 30 0 1 0 30 30 30 30 0 0 0-30-30z m234 0a30 30 0 1 0 30 30 30 30 0 0 0-30-30z" horiz-adv-x="1000" />

<glyph glyph-name="update" unicode="&#xe813;" d="M502 131h-65v231a21 21 0 0 1-21 22h-85a21 21 0 0 1-21-22v-231h-65c-11 0-14-6-6-13l120-120a20 20 0 0 1 28 0l121 120c8 7 5 13-6 13z m295 127l-121 120a20 20 0 0 1-28 0l-121-120c-7-8-5-14 6-14h65v-231a21 21 0 0 1 21-21h85a21 21 0 0 1 22 21v231h65c11 0 13 6 6 14z m47 184c0 6 0 11 0 16a259 259 0 0 1-78 185 267 267 0 0 1-189 77 264 264 0 0 1-157-53 293 293 0 0 1-79-89 153 153 0 0 1-70 17 144 144 0 0 1-107-51 179 179 0 0 1-41-76 196 196 0 0 1-85-64 188 188 0 0 1-38-110v-10a193 193 0 0 1 194-185v0h6v50h-17a144 144 0 0 0-133 136v9a138 138 0 0 0 28 81 147 147 0 0 0 63 47l25 9 6 25a130 130 0 0 0 29 55 95 95 0 0 0 70 35 103 103 0 0 0 47-12l42-21 24 41a243 243 0 0 0 66 73 215 215 0 0 0 127 43 217 217 0 0 0 154-62 209 209 0 0 0 63-150c0-4 0-9 0-14l-2-46 46-5a126 126 0 0 0 112-122 123 123 0 0 0-117-122l-8 0h-25v-50h26v0a172 172 0 0 1 18 343z" horiz-adv-x="1000" />

<glyph glyph-name="download" unicode="&#xe814;" d="M469 644h414a25 25 0 1 1 0 50h-414a25 25 0 1 1 0-50z m395-52h-462l-26 108a26 26 0 0 1-25 20h-239c-49 0-82-41-82-90v-501c0-49 33-88 82-88h209v50h-209c-24 0-32 20-32 38v501c0 15 7 40 32 40h220l31-128h501c23 0 46-20 46-40v-373c0-19-23-38-46-38h-195v-50h195c49 0 96 39 96 88v373c0 49-47 90-96 90z m-218-436h-76v272a25 25 0 0 1-25 25h-100a25 25 0 0 1-25-25v-272h-76c-13 0-16-7-7-16l142-141a23 23 0 0 1 33 0l141 141c9 9 6 16-7 16z" horiz-adv-x="1000" />

<glyph glyph-name="iphone" unicode="&#xe815;" d="M649 691c54 64 49 159 49 159s-93-9-147-73c-55-64-50-160-50-160s93 9 148 74z m118-371a216 216 0 0 0 109 188c-45 67-125 104-181 104-67 0-159-48-186-48-29 0-88 43-168 44-65 1-176-37-214-152s-37-279 44-433c64-123 122-173 177-173s121 43 173 43 100-43 154-43 109 44 149 106 77 157 77 157 0 3 1 6a215 215 0 0 0-135 201z" horiz-adv-x="1000" />

<glyph glyph-name="pic" unicode="&#xe816;" d="M914 690h-828a86 86 0 0 1-86-86v-508a86 86 0 0 1 86-86h828a86 86 0 0 1 86 86v508a86 86 0 0 1-86 86z m-864-86a36 36 0 0 0 36 36h828a36 36 0 0 0 36-36v-508a36 36 0 0 0-3-15l-158 158a87 87 0 0 1-122 0l-92-91-252 250a87 87 0 0 1-122 0l-151-150m732 294a55 55 0 1 1 55-55 55 55 0 0 1-55 55z" horiz-adv-x="1000" />

<glyph glyph-name="circle" unicode="&#xe817;" d="M398 501c-100 0-191 0-290 1a12 12 0 0 1-13-11 457 457 0 0 1-24-128 442 442 0 0 1 29-162c106 104 202 197 306 299a70 70 0 0 1-8 1z m540-140a428 428 0 0 1-29 150c-101-101-196-196-295-295a50 50 0 0 1 6-1c96 0 191 0 287 0a12 12 0 0 1 14 11 472 472 0 0 1 17 135z m-414 168q-106 104-211 208a11 11 0 0 1-16 2 463 463 0 0 1-193-214h423a37 37 0 0 1-3 4z m121-71q1 148 2 296a11 11 0 0 1-9 12 438 438 0 0 1-155 21 520 520 0 0 1-138-32c100-101 201-202 299-302a37 37 0 0 1 1 5z m-281-204q-2-148-3-296a11 11 0 0 1 10-13 453 453 0 0 1 157-22 504 504 0 0 1 136 30c-99 102-201 206-299 306a37 37 0 0 1-1-5z m-242-79a12 12 0 0 1-2-17 433 433 0 0 1 85-114c33-32 87-70 126-85v422c-4-4-5-5-7-7q-101-99-202-199z m558 575v-407c76 71 141 134 213 203a437 437 0 0 1-213 204z m-198-566q106-104 211-208a11 11 0 0 1 16-2 442 442 0 0 1 123 98 412 412 0 0 1 72 116h-425a37 37 0 0 1 3-4z" horiz-adv-x="1000" />

<glyph glyph-name="windows" unicode="&#xe818;" d="M461 770v-362h529v442z m-451-362h378v355l-378-61v-294z m0-410l378-61v393l-378 2v-334z m452-68l528-80v478l-529 2z" horiz-adv-x="1000" />

<glyph glyph-name="pdf" unicode="&#xe819;" d="M706 419c-1 1-3 1-5 1-28 4-95 5-108 5a28 28 0 0 0-16 6q-82 69-162 139a20 20 0 0 0-5 14c1 26 3 53-5 78a37 37 0 0 1-32 28 42 42 0 0 1-40-18 39 39 0 0 1-2-46 522 522 0 0 1 41-53 17 17 0 0 0 5-16c-15-60-29-120-44-180a30 30 0 0 0-11-14c-19-16-38-30-57-45a49 49 0 0 1-15-44 26 26 0 0 1 31-26 84 84 0 0 1 33 16 90 90 0 0 1 31 55c5 27 21 37 44 45a677 677 0 0 0 180 33 23 23 0 0 0 13-5c28-19 55-38 83-57a82 82 0 0 1 26-11 47 47 0 0 1 60 45 50 50 0 0 1-45 50z m-430-143c1 28 26 36 42 53-4-28-22-51-42-53z m78 367a15 15 0 0 0 10 20c10 3 13-4 15-12a106 106 0 0 0 4-19c1-10 0-19 0-32-13 15-25 27-29 43z m96-234c-29-7-57-16-86-24l38 157 137-119c-30-4-59-8-89-14z m272-46a18 18 0 0 0-20-13 45 45 0 0 0-17 5c-21 13-41 27-61 40l1 4c24-2 47-3 71-5a48 48 0 0 0 19-8 17 17 0 0 0 7-23z m-431-271a92 92 0 0 1-23 0 12 12 0 0 1-8-8 194 194 0 0 1 0-25c0-9-1-18 0-27a10 10 0 0 1 6-7 128 128 0 0 1 34 4 32 32 0 0 1 19 37 30 30 0 0 1-28 26z m560 536q-92 106-184 212a28 28 0 0 1-23 10c-154 0-308 0-462 0a52 52 0 0 1-25-8c-14-8-17-22-17-38q0-226 0-453 0-227 0-454c0-33 14-47 46-47q314 0 628 0c32 0 46 14 46 46q0 108 0 215 0 244 0 488a40 40 0 0 1-9 29z m-496-616c-17-20-40-26-65-29-10 0-21 0-33 0v-84h-52c0 4-1 8-1 12q0 105 0 211c0 6 0 12 8 13 33 0 67 2 99-1a63 63 0 0 0 58-44 76 76 0 0 0-14-78z m179-107a214 214 0 0 0-50-8c-22-1-45 1-68 2a7 7 0 0 0-8 8c0 75 0 150 0 227 50 4 100 11 147-9 41-17 59-51 61-95 4-62-26-109-82-125z m261 187h-89v-54h83v-43h-84v-96h-53v237h143v-44z m25 93h-640v625h450v-14q0-88 0-176c0-23 5-29 28-29q73 0 146 0h16v-406z m-355-101v-143c35-6 66 5 80 29 15 27 14 72-3 93a75 75 0 0 1-77 21z" horiz-adv-x="1000" />

<glyph glyph-name="wechat2" unicode="&#xe81a;" d="M381 260a243 243 0 0 0 86 158 292 292 0 0 0 180 73c21 1 42 2 62 4-12 61-59 129-125 168-144 85-292 90-440 9a268 268 0 0 1-137-175c-3-14-5-28-7-42v-25a583 583 0 0 1 13-59c20-62 63-107 116-144a17 17 0 0 0 8-25c-11-27-20-56-31-87 32 15 61 27 89 42a98 98 0 0 0 77 10 354 354 0 0 1 116-8 251 251 0 0 0-7 101z m105 324a41 41 0 1 0 1-81c-28 0-51 19-51 41-1 22 22 40 50 40z m-247-81c-27 1-52 20-51 41 1 22 25 40 52 40a39 39 0 0 0 42-40 40 40 0 0 0-43-41z m753-219c-21 71-69 121-133 154a335 335 0 0 1-193 38c-102-11-186-50-240-140a189 189 0 0 1-20-156c28-91 95-143 183-172a354 354 0 0 1 202-5 42 42 0 0 0 25-2c23-11 45-23 68-35a157 157 0 0 1 18-6c-9 29-15 52-23 79 57 36 108 95 116 162a155 155 0 0 1-3 83z m-390-7a36 36 0 0 0-34 33 34 34 0 0 0 36 31c23-1 40-15 39-33-1-17-19-31-41-31z m194 0a35 35 0 0 0-34 33 34 34 0 0 0 36 31c22-1 39-15 39-32 0-17-20-32-41-32z" horiz-adv-x="1000" />

<glyph glyph-name="mail" unicode="&#xe81b;" d="M1000 641l-1 1a69 69 0 0 1-67 58h-864a69 69 0 0 1-67-58l-1-1 1 0a68 68 0 0 1-1-9v-564a69 69 0 0 1 68-68h864a69 69 0 0 1 68 68v564a68 68 0 0 1-1 9z m-113-8l-387-322-387 322h774z m46-565a2 2 0 0 0-1-1h-864a2 2 0 0 0-1 1v517l390-325a67 67 0 0 1 86 0l390 326v-517z" horiz-adv-x="1000" />

<glyph glyph-name="personal" unicode="&#xe81c;" d="M651 327a284 284 0 1 1-302 0 501 501 0 0 1-349-444 33 33 0 0 1 67 0h0a435 435 0 0 0 433 400h0a435 435 0 0 0 433-400h0a33 33 0 0 1 67 0 501 501 0 0 1-349 444z m-368 240a217 217 0 1 0 217-217h0a217 217 0 0 0-217 217z" horiz-adv-x="1000" />

<glyph glyph-name="return" unicode="&#xe81d;" d="M583 683h-455l119 120-47 47-200-200 200-200 47 47-119 120h455a350 350 0 1 0 0-700h-516v-67h516a418 418 0 0 1 417 417h0a418 418 0 0 1-417 416z" horiz-adv-x="1000" />

<glyph glyph-name="again-pw" unicode="&#xe81e;" d="M669 820a291 291 0 0 1-290-291 287 287 0 0 1 21-105l-353-353a47 47 0 0 1-17-36v-87a59 59 0 0 1 58-58h87a47 47 0 0 1 36 16l42 42h68a58 58 0 0 1 58 58v58h58a58 58 0 0 1 58 59v68l69 69a287 287 0 0 1 105-21 291 291 0 0 1 0 581z m0-515a221 221 0 0 0-81 16l-40 16-119-119v-87h-117v-116h-87l-58-59h-71v71l381 381-16 40a221 221 0 0 0-16 81 224 224 0 1 0 224-224z m5 346a83 83 0 1 1 117 0 83 83 0 0 1-117 0z m82-82a33 33 0 1 0 0 47 33 33 0 0 0 0-47z" horiz-adv-x="1000" />

<glyph glyph-name="phone" unicode="&#xe81f;" d="M773 850h-536a67 67 0 0 1-67-67v-866a67 67 0 0 1 67-67h536a67 67 0 0 1 67 67v866a67 67 0 0 1-67 67z m0-933h-536v166h536v-166z m0 233h-536v500h536v-500z m0 567h-536v66h536v-66z m-268-759a42 42 0 1 1-42 42 42 42 0 0 1 42-42z" horiz-adv-x="1000" />

<glyph glyph-name="Security" unicode="&#xe820;" d="M880 691a17 17 0 0 1-16 18l-22 0a495 495 0 0 0-172 41 745 745 0 0 0-147 86l-13 11a16 16 0 0 1-10 3 16 16 0 0 1-10-3l-13-11a744 744 0 0 0-147-86 494 494 0 0 0-172-41l-22 0a17 17 0 0 1-16-18v-405c0-212 247-436 380-436s380 224 380 436z m-380-774c-94 0-314 193-314 369v358a567 567 0 0 1 171 45 861 861 0 0 1 143 81 856 856 0 0 1 143-81 567 567 0 0 1 171-45l0-358c0-176-220-369-314-369z m128 565l-184-193-72 76a31 31 0 0 1-45 0 35 35 0 0 1 0-47l95-100a31 31 0 0 1 22-10 31 31 0 0 1 23 10l206 217a34 34 0 0 1 0 47 31 31 0 0 1-45 0z" horiz-adv-x="1000" />

<glyph glyph-name="password" unicode="&#xe821;" d="M781 450h-17v133a266 266 0 0 1-264 267h0a266 266 0 0 1-264-267v-133h-17a100 100 0 0 1-99-100v-400a100 100 0 0 1 99-100h562a100 100 0 0 1 99 100v400a100 100 0 0 1-99 100z m-479 133a198 198 0 1 0 396 0v-133h-396v133z m512-633a34 34 0 0 0-33-33h-562a34 34 0 0 0-33 33v400a34 34 0 0 0 33 33h562a34 34 0 0 0 33-33v-400z m-314 360a117 117 0 0 1-33-228v-65a33 33 0 0 1 33-33h0a33 33 0 0 1 33 33v65a117 117 0 0 1-33 228z m0-167a50 50 0 1 0 50 50 50 50 0 0 0-50-50z" horiz-adv-x="1000" />

<glyph glyph-name="answer" unicode="&#xe822;" d="M470 437h103c-20 13-40 26-57 37a567 567 0 0 0-46-37z m374 413h-688a77 77 0 0 1-76-77v-883c0-43 24-53 54-23l136 137h574a77 77 0 0 1 76 77v692a77 77 0 0 1-76 77z m-528-126l84-23c-3-7-7-16-10-24h117v-70a305 305 0 0 1 60 117l83-20a280 280 0 0 0-10-29h153v-73h-78a270 270 0 0 0 26-42l-81-29a424 424 0 0 1-42 71h-13a328 328 0 0 0-35-50 540 540 0 0 1-71 47l5 5h-65a315 315 0 0 0 24-47l-78-26a345 345 0 0 1-34 72 514 514 0 0 0-55-75 566 566 0 0 1-74 48c39 35 74 93 94 148z m384-585h-88v14h-197v-16h-84v204h369v-202z m53 211a848 848 0 0 0-117 52v-37h-241v26a825 825 0 0 0-116-50 370 370 0 0 1-54 73c114 32 223 93 278 164l76-34c-4-6-9-12-14-18a1090 1090 0 0 1 249-99 412 412 0 0 1-61-77z m-141-84h-197v-38h197v38z" horiz-adv-x="1000" />

<glyph glyph-name="question" unicode="&#xe823;" d="M464 363h73v80h-73v-80z m380 487h-688a77 77 0 0 1-76-77v-883c0-42 24-53 54-23l136 137h574a77 77 0 0 1 76 77v692a77 77 0 0 1-76 77z m-514-717h-87v426h87v-426z m-84 534l63 42c29-31 74-76 95-103l-68-49c-19 28-61 75-90 110z m218-415h-78v269h237v-237h-159v-32z m308-19c0-46-9-69-36-83s-64-16-116-16a337 337 0 0 1-27 86c28-1 66-1 76-1a12 12 0 0 1 15 15v367h-274v82h362v-450z" horiz-adv-x="1000" />

<glyph glyph-name="wechat" unicode="&#xe824;" d="M530 546a49 49 0 0 1-53 52c-31 0-63-20-63-52s32-52 63-52a50 50 0 0 1 53 52z m-258 52c-31 0-63-20-63-52s32-52 63-52a49 49 0 0 1 52 52 48 48 0 0 1-52 52z m333-247a46 46 0 0 1-42-43 45 45 0 0 1 42-42c32 0 52 21 52 42 1 21-20 43-52 43z m185 0a45 45 0 0 1-41-43 45 45 0 0 1 41-42c32 0 53 21 53 42 0 21-20 43-53 43z m210-113c0 136-118 248-271 264h0c-28 146-179 258-362 258-203 0-367-138-367-307 0-95 51-179 130-235l-26-85c-9-26 4-37 29-24l101 54c2 1 2 1 3 2a429 429 0 0 1 130-20c12 0 23 1 35 2h0c43-102 156-175 290-175a353 353 0 0 1 103 15l79-42c24-13 37-2 29 24l-19 61c71 48 116 123 116 208z m-617 0a232 232 0 0 1 1-26c-5 0-11 0-17 0a362 362 0 0 0-110 16l-29 10-27-17 8 23-40 28c-65 46-102 112-102 181 0 132 134 241 300 241 144 0 265-83 294-192-156-13-278-126-278-264z m309-200c-134 0-242 90-242 200s108 199 242 199 241-89 241-199-108-200-241-200z" horiz-adv-x="1000" />

<glyph glyph-name="balance" unicode="&#xe825;" d="M909 850h-818a91 91 0 0 1-91-91v-818a91 91 0 0 1 91-91h818a91 91 0 0 1 91 91v818a91 91 0 0 1-91 91z m0-933h-818a25 25 0 0 0-24 24v818a25 25 0 0 0 24 24h818a25 25 0 0 0 24-24v-192h-200a200 200 0 0 1 0-400h200v-226a25 25 0 0 0-24-24z m24 583v-267h-200a133 133 0 0 0 0 267h200z m-200-233a100 100 0 1 1-100 100 100 100 0 0 1 100-100z m0 133a33 33 0 1 0-33-33 33 33 0 0 0 33 33z" horiz-adv-x="1000" />

<glyph glyph-name="complete" unicode="&#xe826;" d="M0 850v-1000h1000v1000h-1000z m810-332l-384-384h0a33 33 0 0 0-47 0l-189 189a33 33 0 0 0 0 47h0a33 33 0 0 0 47 0l165-165 361 361a33 33 0 0 0 47-48z" horiz-adv-x="1000" />

<glyph glyph-name="success" unicode="&#xe827;" d="M500 850a500 500 0 1 1 500-500 500 500 0 0 1-500 500z m0-933a433 433 0 1 0 433 433 434 434 0 0 0-433-433z m310 649a33 33 0 0 1-47 0l-361-361-165 165a33 33 0 0 1-47 0h0a33 33 0 0 1 0-47l189-189a33 33 0 0 1 47 0h0l384 384a33 33 0 0 1 0 48z" horiz-adv-x="1000" />

<glyph glyph-name="error" unicode="&#xe828;" d="M500 850a500 500 0 1 1 500-500 500 500 0 0 1-500 500z m236-689a33 33 0 0 0-47-47l-189 189-189-189a33 33 0 0 0-47 0h0a33 33 0 0 0 0 47l189 189-189 189a33 33 0 0 0 0 47h0a33 33 0 0 0 47 0l189-189 189 189a33 33 0 0 0 47-47l-189-189z" horiz-adv-x="1000" />

<glyph glyph-name="warning" unicode="&#xe829;" d="M500 850a500 500 0 1 1 500-500 500 500 0 0 1-500 500h0z m-50-212a50 50 0 0 0 100 0v-400a50 50 0 0 0-100 0v400z m50-641a63 63 0 1 0 63 62 63 63 0 0 0-63-62h0z m0 0" horiz-adv-x="1000" />

<glyph glyph-name="protect" unicode="&#xe82a;" d="M898 491h-10v215l-29-1c-8 0-15 0-23 0h0c-204 0-293 92-294 93l-20 22-21-22c0-1-95-100-317-93l-28 1v-94h-52a83 83 0 0 1-50-150 82 82 0 0 1 0-133 82 82 0 0 1-17-49 84 84 0 0 1 74-83 82 82 0 0 1-7-34 84 84 0 0 1 83-83h38c51-64 138-129 287-186l10-4 10 4c319 122 356 283 356 392v23h10a91 91 0 1 1 0 182z m-794 71h134a33 33 0 1 0 0-67h-134a33 33 0 1 0 0 67z m134-199h-134a33 33 0 1 0 0 66h134a33 33 0 1 0 0-66z m-151-83a34 34 0 0 0 33 33h118a33 33 0 1 0 0-67h-118a34 34 0 0 0-33 34z m67-117a34 34 0 0 0 33 33h51a33 33 0 1 0 0-66h-51a34 34 0 0 0-33 33z m667 123c0-62 0-205-299-325-114 46-184 95-228 141a82 82 0 0 1 3 119 82 82 0 0 1 0 117 82 82 0 0 1-10 124 83 83 0 0 1-49 150h-15v26c158 4 255 58 299 90 45-33 142-86 299-90v-147h-7a91 91 0 1 1 0-182h7v-23z m77 72h-84a42 42 0 1 0 0 83h84a42 42 0 1 0 0-83z m-205 48h-125v124h-84v-124h-126v-83h126v-125h84v125h125v83z" horiz-adv-x="1000" />

<glyph glyph-name="ok" unicode="&#xe82b;" d="M500 850a500 500 0 1 1 500-500 500 500 0 0 1-500 500z m310-332l-384-384h0a33 33 0 0 0-47 0l-189 189a33 33 0 0 0 0 47h0a33 33 0 0 0 47 0l165-165 361 361a33 33 0 0 0 47-48z" horiz-adv-x="1000" />

<glyph glyph-name="close" unicode="&#xe82c;" d="M933 837l-436-435-437 435a33 33 0 1 1-47-47l436-435-436-435a33 33 0 1 1 47-47l437 435 443-432a33 33 0 0 1 47 47l-443 432 436 435a33 33 0 1 1-47 47z" horiz-adv-x="1000" />

<glyph glyph-name="left" unicode="&#xe82d;" d="M747-80l-434 435 434 435a33 33 0 0 1-47 47l-457-458h0a33 33 0 0 1 0-47l457-459a33 33 0 0 1 47 0h0a33 33 0 0 1 0 47z" horiz-adv-x="1000" />

<glyph glyph-name="filter" unicode="&#xe82e;" d="M982 784a129 129 0 0 1-116 66q-366 0-732 0a153 153 0 0 1-36-5 130 130 0 0 1-98-127 130 130 0 0 1 40-94q142-142 284-284a13 13 0 0 0 4-10v-247a33 33 0 0 1 66-3l0 0v4h0v245a79 79 0 0 1-24 59q-141 141-283 283a64 64 0 0 0-20 47 64 64 0 0 0 47 63 86 86 0 0 0 20 2l448 0h284a63 63 0 0 0 60-33 64 64 0 0 0-5-69 146 146 0 0 0-12-13q-144-145-289-289a80 80 0 0 1-24-59v-437a33 33 0 0 1 66 0v437a14 14 0 0 0 5 11q145 144 290 289a211 211 0 0 1 17 20 130 130 0 0 1 8 144z" horiz-adv-x="1000" />

<glyph glyph-name="search" unicode="&#xe82f;" d="M981-36l-198 197a434 434 0 1 1-94-94l197-198a67 67 0 1 1 95 95z m-914 453a367 367 0 1 0 366-367 367 367 0 0 0-366 367z" horiz-adv-x="1000" />

<glyph glyph-name="well" unicode="&#xe830;" d="M500 850c-276 0-500-224-500-500s224-500 500-500 500 224 500 500-224 500-500 500z m0-933c-239 0-433 194-433 433s194 433 433 433 433-194 433-433-194-433-433-433z m-158 498c32 0 58 26 58 58s-26 58-58 58-58-26-58-58 25-58 58-58z m316 0c32 0 58 26 58 58s-26 58-58 58c-32 0-58-26-58-58s26-58 58-58z m75-82c-18 0-33-15-33-33 0-110-90-200-200-200-110 0-200 90-200 200 0 18-15 33-33 33-18 0-33-15-33-33 0-147 119-267 267-267 147 0 267 119 267 267-1 18-16 33-35 33z" horiz-adv-x="1000" />

<glyph glyph-name="nowell" unicode="&#xe831;" d="M500 850c-276 0-500-224-500-500 0-276 224-500 500-500s500 224 500 500c0 276-224 500-500 500z m0-933c-239 0-433 194-433 433 0 239 194 433 433 433s433-194 433-433c0-239-194-433-433-433z m-158 498c32 0 58 26 58 58s-26 58-58 58-58-26-58-58 25-58 58-58z m316 117c-32 0-58-26-58-58s26-58 58-58 58 26 58 58-25 58-58 58z m9-317h-334c-18 0-33-15-33-33 0-18 15-33 33-33h333c18 0 33 15 33 33 1 18-14 33-32 33z" horiz-adv-x="1000" />

<glyph glyph-name="carry" unicode="&#xe832;" d="M500 521c-18 0-33-15-33-33v-50h-50c-18 0-33-15-33-33 0-18 15-33 33-33h50v-50c0-18 15-33 33-33 18 0 33 15 33 33v50h50c18 0 33 15 33 33 0 18-15 33-33 33h-50v50c0 18-15 33-33 33z m183-334c0 18-15 33-33 33h-367c-18 0-33-15-33-33 0-18 15-33 33-33h367c18 0 33 15 33 33z m-400-100c-18 0-33-15-33-33 0-18 15-33 33-33h167c18 0 33 15 33 33 0 18-15 33-33 33h-167z m707 56c-13 13-34 13-47 0l-212-213-94 94c-13 13-34 13-47 0-13-13-13-34 0-47l117-117c6-6 15-10 24-10 9 0 17 3 24 10l235 235c13 13 13 35 0 48z m-473-226c0 0 0 0 0 0l-296 0c-20 0-37 17-37 37v692c0 20 17 37 37 37h79v-100c0-18 15-33 33-33h333c18 0 33 15 33 33v100h79c20 0 37-17 37-37v-446c0-18 15-33 33-33 18 0 33 15 33 33v446c0 57-47 104-104 104h-142c-15 57-67 100-129 100h0c-62 0-114-43-129-100h-156c-57 0-104-47-104-104v-692c0-57 47-104 104-104h296c18 0 33 15 33 33 0 19-15 34-33 34z m-150 766h73v33c0 0 0 0 0 0 0 0 0 0 0 0v0h0c0 37 30 66 67 66 37 0 66-30 67-66h0v0c0 0 0 0 0 0 0 0 0 0 0 0v-33h61v-67h-268v67z" horiz-adv-x="1000" />

<glyph glyph-name="submit" unicode="&#xe833;" d="M283 518h183c18 0 33 15 33 33 0 18-15 33-33 33h-183c-18 0-33-15-33-33 0-18 15-33 33-33z m-33-133c0-18 15-33 33-33h400c18 0 33 15 33 33 0 18-15 33-33 33h-400c-18 0-33-15-33-33z m300-133h-267c-18 0-33-15-33-33 0-18 15-33 33-33h267c18 0 33 15 33 33 0 18-15 33-33 33z m333 331l-266 267v0h-400c-55 0-100-45-100-100v-800c0-55 45-100 100-100h567c55 0 100 45 100 100l-1 633 0 0z m-266 173l172-172h-139c-18 0-33 15-33 33v139z m200-806c0-18-15-33-33-33h-567c-18 0-33 15-33 33v800c0 18 15 33 33 33h333v-167c0-55 45-100 100-100h167v-566z" horiz-adv-x="1000" />

<glyph glyph-name="next" unicode="&#xe834;" d="M1000 345l-200 75v-60h-800v-30h800v-60z" horiz-adv-x="1000" />

<glyph glyph-name="drop" unicode="&#xe835;" d="M-1 598l500-500 500 500h-1000z" horiz-adv-x="1000" />

<glyph glyph-name="noun" unicode="&#xe836;" d="M933 417h-866a67 67 0 0 1 0-134h866a67 67 0 0 1 0 134z" horiz-adv-x="1000" />

<glyph glyph-name="ppt" unicode="&#xe837;" d="M245 311h40a349 349 0 0 1 64 4 89 89 0 0 1 31 14 83 83 0 0 1 26 30 99 99 0 0 1 10 47 94 94 0 0 1-17 59 80 80 0 0 1-44 30 356 356 0 0 1-73 4h-98v-303h61v115z m0 137h30a294 294 0 0 0 44-2 42 42 0 0 0 24-13 39 39 0 0 0 10-28 41 41 0 0 0-7-23 40 40 0 0 0-19-15 158 158 0 0 0-48-5h-34v86z m722 300h-367v71a28 28 0 0 1-33 28l-534-90a41 41 0 0 1-33-39v-741a41 41 0 0 1 33-39l534-90a28 28 0 0 1 33 28v72h367a33 33 0 0 1 33 33v734a33 33 0 0 1-33 33z m-434-827l-466 79v696l466 78v-853z m417 77h-350v95h216a25 25 0 0 1 0 50h-216v52h216a25 25 0 0 1 0 50h-216v73a131 131 0 0 1 43-7 133 133 0 0 1 133 133h-133v133a131 131 0 0 1-43-7v128h350v-700z m-274 613v-134h134a133 133 0 0 1-134 134z" horiz-adv-x="1000" />

<glyph glyph-name="noresult" unicode="&#xe838;" d="M740 723a433 433 0 1 1 0-613 433 433 0 0 1 0 613z m-47-566a367 367 0 1 0 0 519 367 367 0 0 0 0-519z m-425 425a33 33 0 0 1-47 47h0a300 300 0 0 1 0-424 33 33 0 0 1 47 47h0a234 234 0 0 0 0 330z m722-675l-165 165a33 33 0 0 1-47-47l165-165a33 33 0 0 1 47 47z" horiz-adv-x="1000" />

<glyph glyph-name="plus" unicode="&#xe839;" d="M933 417h-366v366a67 67 0 1 1-134 0v-366h-366a67 67 0 0 1-67-67h0a67 67 0 0 1 67-67h366v-366a67 67 0 1 1 134 0v366h366a67 67 0 0 1 67 67h0a67 67 0 0 1-67 67z" horiz-adv-x="1000" />

<glyph glyph-name="money" unicode="&#xe83a;" d="M500 850a500 500 0 1 1 500-500 500 500 0 0 1-500 500z m0-933a433 433 0 1 0 433 433 434 434 0 0 0-433-433z m167 452a33 33 0 0 1 0 67h-131l152 152a33 33 0 1 1-47 47l-142-141-141 141a33 33 0 1 1-47-47l151-152h-129a33 33 0 1 1 0-67h134v-100h-134a33 33 0 1 1 0-66h134v-158a33 33 0 1 1 66 0v158h134a33 33 0 1 1 0 66h-134v100z" horiz-adv-x="1000" />

<glyph glyph-name="optimize" unicode="&#xe83b;" d="M283 518h184a33 33 0 1 1 0 67h-184a33 33 0 0 1 0-67z m0-166h317a33 33 0 1 1 0 67h-317a33 33 0 0 1 0-67z m600-216a142 142 0 1 1-258-7l-112-196 113 31 31-114 99 172 100-172 30 114 114-31z m-209-156l-12 46-46-13 42 73a141 141 0 0 1 59-31z m78 137a75 75 0 1 0 75 75 75 75 0 0 0-75-76z m99-91l-12-46-44 76a142 142 0 0 1 57 34l44-77z m-412-109h-222a33 33 0 0 0-34 33v800a33 33 0 0 0 34 33h333v-166a100 100 0 0 1 100-100h167v-117h0a33 33 0 1 1 66 0v183l-266 267h-400a100 100 0 0 1-100-100v-800a100 100 0 0 1 100-100h222a33 33 0 0 1 0 67z m178 839l172-173h-139a33 33 0 0 0-33 34z" horiz-adv-x="1000" />

<glyph glyph-name="safari" unicode="&#xe83c;" d="M418 432l-177-341 342 176h0l176 342-341-177z m37-37l188 98-97-188h0l-91 90z m45 455a500 500 0 1 1 500-500 500 500 0 0 1-500 500z m0-933a433 433 0 1 0 433 433 434 434 0 0 0-433-433z m25 833h-50v-100h50z m-425-425h100v50h-100z m376-375h50v100h-50z m324 426v-50h100v50z" horiz-adv-x="1000" />

<glyph glyph-name="selected" unicode="&#xe83d;" d="M0 850v-1000h1000v1000h-1000z m810-332l-384-384h0a33 33 0 0 0-47 0l-189 189a33 33 0 0 0 0 47h0a33 33 0 0 0 47 0l165-165 361 361a33 33 0 0 0 47-48z" horiz-adv-x="1000" />

<glyph glyph-name="beautify" unicode="&#xe83e;" d="M450 453h-167a33 33 0 1 1 0-67h167a33 33 0 1 1 0 67z m300 100a33 33 0 0 1-33 33h-434a33 33 0 1 1 0-66h434a33 33 0 0 1 33 33z m-467 100h267a33 33 0 1 1 0 67h-267a33 33 0 1 1 0-67z m707-746l-330 330a33 33 0 1 1-47-47l330-330a33 33 0 1 1 47 47z m-769 93a38 38 0 0 0-38 37v709a38 38 0 0 0 38 37h558a38 38 0 0 0 38-37v-571l66-67v638a104 104 0 0 1-104 104h-558a104 104 0 0 1-104-104v-709a104 104 0 0 1 104-104h554l-66 67z m340 331l-14 62-15-62-62-14 63-15 14-62 14 63 63 14z m181-121l7 31 31 7-31 7-7 32-7-32-31-7 31-7z m-220-110l48-11 10-48 11 48 48 11-48 10-11 48-10-48z" horiz-adv-x="1000" />

<glyph glyph-name="roadshow" unicode="&#xe83f;" d="M967 750h-334v33h0a33 33 0 0 1-33 34h-200a33 33 0 0 1-33-34h0v-33h-334a33 33 0 0 1 0-67h934a33 33 0 1 1 0 67z m-100-133h-734a67 67 0 0 1-66-67v-400a67 67 0 0 1 66-67h120l-143-143a33 33 0 0 1 47-47l190 190h120v-166a33 33 0 0 1 67 0v166h120l190-190a33 33 0 1 1 46 47l-143 143h120a67 67 0 0 1 66 67v400a67 67 0 0 1-66 67z m0-467h-734v400h734z m-484 183h-100v-100h100z m167 67h-100v-167h100z m167 67h-100v-234h100z" horiz-adv-x="1000" />

<glyph glyph-name="download-pdf" unicode="&#xe840;" d="M706 419c-1 1-3 1-5 1-28 4-95 5-108 5a28 28 0 0 0-16 6q-82 69-162 139a20 20 0 0 0-5 14c1 26 3 53-5 78a37 37 0 0 1-32 28 42 42 0 0 1-40-18 39 39 0 0 1-2-46 522 522 0 0 1 41-53 17 17 0 0 0 5-16c-15-60-29-120-44-180a30 30 0 0 0-11-14c-19-16-38-30-57-45a49 49 0 0 1-15-44 26 26 0 0 1 31-26 84 84 0 0 1 33 16 90 90 0 0 1 31 55c5 27 21 37 44 45a677 677 0 0 0 180 33 23 23 0 0 0 13-5c28-19 55-38 83-57a82 82 0 0 1 26-11 47 47 0 0 1 60 45 50 50 0 0 1-45 50z m-430-143c1 28 26 36 42 53-4-28-22-51-42-53z m78 367a15 15 0 0 0 10 20c10 3 13-4 15-12a106 106 0 0 0 4-19c1-10 0-19 0-32-13 15-25 27-29 43z m96-234c-29-7-57-16-86-24l38 157 137-119c-30-4-59-8-89-14z m272-46a18 18 0 0 0-20-13 45 45 0 0 0-17 5c-21 13-41 27-61 40l1 4c24-2 47-3 71-5a48 48 0 0 0 19-8 17 17 0 0 0 7-23z m-431-271a92 92 0 0 1-23 0 12 12 0 0 1-8-8 194 194 0 0 1 0-25c0-9-1-18 0-27a10 10 0 0 1 6-7 128 128 0 0 1 34 4 32 32 0 0 1 19 37 30 30 0 0 1-28 26z m560 536q-92 106-184 212a28 28 0 0 1-23 10c-154 0-308 0-462 0a52 52 0 0 1-25-8c-14-8-17-22-17-38q0-226 0-453 0-227 0-454c0-33 14-47 46-47q314 0 628 0c32 0 46 14 46 46q0 108 0 215 0 244 0 488a40 40 0 0 1-9 29z m-496-616c-17-20-40-26-65-29-10 0-21 0-33 0v-84h-52c0 4-1 8-1 12q0 105 0 211c0 6 0 12 8 13 33 0 67 2 99-1a63 63 0 0 0 58-44 76 76 0 0 0-14-78z m179-107a214 214 0 0 0-50-8c-22-1-45 1-68 2a7 7 0 0 0-8 8c0 75 0 150 0 227 50 4 100 11 147-9 41-17 59-51 61-95 4-62-26-109-82-125z m261 187h-89v-54h83v-43h-84v-96h-53v237h143v-44z m25 93h-640v625h450v-14q0-88 0-176c0-23 5-29 28-29q73 0 146 0h16v-406z m-355-101v-143c35-6 66 5 80 29 15 27 14 72-3 93a75 75 0 0 1-77 21z" horiz-adv-x="1000" />

<glyph glyph-name="download-ppt" unicode="&#xe841;" d="M245 311h40a349 349 0 0 1 64 4 89 89 0 0 1 31 14 83 83 0 0 1 26 30 99 99 0 0 1 10 47 94 94 0 0 1-17 59 80 80 0 0 1-44 30 356 356 0 0 1-73 4h-98v-303h61v115z m0 137h30a294 294 0 0 0 44-2 42 42 0 0 0 24-13 39 39 0 0 0 10-28 41 41 0 0 0-7-23 40 40 0 0 0-19-15 158 158 0 0 0-48-5h-34v86z m722 300h-367v71a28 28 0 0 1-33 28l-534-90a41 41 0 0 1-33-39v-741a41 41 0 0 1 33-39l534-90a28 28 0 0 1 33 28v72h367a33 33 0 0 1 33 33v734a33 33 0 0 1-33 33z m-434-827l-466 79v696l466 78v-853z m417 77h-350v95h216a25 25 0 0 1 0 50h-216v52h216a25 25 0 0 1 0 50h-216v73a131 131 0 0 1 43-7 133 133 0 0 1 133 133h-133v133a131 131 0 0 1-43-7v128h350v-700z m-274 613v-134h134a133 133 0 0 1-134 134z" horiz-adv-x="1000" />

<glyph glyph-name="weibo" unicode="&#xe842;" d="M500 850a500 500 0 1 1 500-500 500 500 0 0 1-500 500z m223-630c-45-94-193-140-303-132-105 9-239 43-253 168 0 0-7 56 49 130 0 0 80 110 173 141s104-21 104-53c-5-26-15-42 20-31 0 0 92 42 129 5 30-30 5-72 5-72s-12-13 14-18 107-43 62-138z m-90 261a18 18 0 1 0 0 35s113 21 99-98a10 10 0 0 0 0-2 18 18 0 0 0-36 3s17 79-63 62z m190-95h0c-3-20-13-22-25-22a24 24 0 0 0-26 23 75 75 0 0 0 5 25c2 5 14 37-8 86-40 66-120 67-130 63a133 133 0 0 0-23-6 26 26 0 0 0-7 51 2 2 0 0 0 0 0c1 0 2 1 3 1a230 230 0 0 0 90 1c68-15 164-82 121-223z m-446-134a39 39 0 0 1-36-37c0-16 17-28 37-26s37 18 37 35-15 30-38 28z m52 14a16 16 0 0 1-5-21 13 13 0 0 1 19-2 17 17 0 0 1 6 21 13 13 0 0 1-20 2z m-1 113c-109-5-198-63-198-135s88-125 198-120 197 72 197 144-88 116-197 111z m74-181c-33-42-100-63-163-29a56 56 0 0 0-30 49s-13 101 97 114 130-92 96-134z" horiz-adv-x="1000" />

<glyph glyph-name="bind_wechat" unicode="&#xe843;" d="M653 490c10 0 20-1 30-2-26 123-159 215-309 215-169 0-307-115-307-261 0-84 46-153 122-207l-31-92 108 54c38-8 69-15 107-15 10 0 19 0 29 1a236 236 0 0 0-10 64c1 134 116 243 261 243z m-165 83a36 36 0 0 0 39-38 36 36 0 0 0-39-39c-22 0-46 15-46 39s24 38 46 38z m-214-77c-23 0-46 15-46 38s23 39 46 39a36 36 0 0 0 38-39 36 36 0 0 0-38-38z m659-246c0 123-122 223-260 223-146 0-261-100-261-223s115-222 261-222a393 393 0 0 1 92 15l84-46-23 76c61 47 107 109 107 177z m-345 39a33 33 0 0 0-31 31 34 34 0 0 0 31 30c23 0 39-15 39-31s-16-31-39-31z m169 0a33 33 0 0 0-30 31 33 33 0 0 0 30 31c23-1 38-16 38-31s-15-31-38-31z m0 0" horiz-adv-x="1000" />

<glyph glyph-name="bind_phone" unicode="&#xe844;" d="M688 850h-376a62 62 0 0 1-62-62v-876a62 62 0 0 1 62-62h376a62 62 0 0 1 62 62v876a62 62 0 0 1-62 62z m-230-93a10 10 0 0 0 10 10h63a10 10 0 0 0 10-10v-1a10 10 0 0 0-10-10h-62a10 10 0 0 0-10 10z m-31 10a10 10 0 1 0-10-10 10 10 0 0 0 10 10z m73-876a42 42 0 1 0 42 42 42 42 0 0 0-42-42z m208 126h-416v666h416z m0 0" horiz-adv-x="1000" />

<glyph glyph-name="bind_weibo" unicode="&#xe845;" d="M778 416a23 23 0 0 1 23 20 13 13 0 0 1 0 2c18 155-128 128-128 128a23 23 0 1 1 0-46c104 23 81-81 81-81a23 23 0 0 1 24-23z m-17 270a299 299 0 0 1-117-1c-1 0-2-1-3-1a3 3 0 0 1-1-1 34 34 0 0 1 9-66 173 173 0 0 1 31 7c12 5 117 4 169-82 28-63 12-105 10-112a98 98 0 0 1-7-32 31 31 0 0 1 34-30c16 0 29 2 33 28h0c56 184-68 270-158 290z m0 0m-355-630c-142-7-256 63-256 157s114 168 256 175 257-52 257-145-115-181-257-187z m303 303c-34 7-18 24-18 24s33 54-6 93c-49 48-168-6-168-6-45-14-33 6-27 41 0 41-14 109-135 69s-225-184-225-184c-72-95-63-169-63-169 18-162 193-207 329-217 143-11 336 48 394 171s-48 171-82 178z m0 0m-283-147a17 17 0 0 0-25 2 21 21 0 0 0 6 26 17 17 0 0 0 27-2 22 22 0 0 0-8-27z m-84-71c-27-3-48 12-48 34a51 51 0 0 0 46 48c30 3 50-15 50-37s-22-42-48-45z m36 185c-143-16-126-148-126-148a72 72 0 0 1 38-63c84-45 170-18 213 38s18 190-125 173z m0 0" horiz-adv-x="1000" />

<glyph glyph-name="consult" unicode="&#xe846;" d="M870 183a35 35 0 1 1-35 0 35 35 0 0 1 35 0z m-656 222a55 55 0 1 1 54-55 55 55 0 0 1-54 55z m339 0a55 55 0 1 1 54-55 55 55 0 0 1-54 55z m-170 0a55 55 0 1 1 55-55 55 55 0 0 1-55 55z m563-341h0c5 6 10 12 14 18a235 235 0 0 1-136 358 449 449 0 0 0 8-55 185 185 0 0 0-67-357 183 183 0 0 0-58 10 454 454 0 0 0-41-38 234 234 0 0 1 205 3c36-32 93-25 93-25-48 25-18 86-18 86z m-563 670a383 383 0 0 1-276-650c8-31 11-80-38-105 0 0 80-10 137 31a383 383 0 1 1 177 723z m0-700a317 317 0 1 0 317 316 316 316 0 0 0-317-317z" horiz-adv-x="1000" />

<glyph glyph-name="law" unicode="&#xe847;" d="M695 221a166 166 0 0 1 138-74h0a167 167 0 0 1 167 167h0a166 166 0 0 1-14 65h0l-153 338h-300v100h0a33 33 0 0 1-66 0h0v-100h-300l-151-333h0a166 166 0 0 1 13-163 166 166 0 0 1 138-74h0a167 167 0 0 1 166 167h0a166 166 0 0 1-13 65h0l-123 271h270v-733h-300a33 33 0 0 1-33-34h0a33 33 0 0 1 33-33h666a33 33 0 0 1 34 33h0a33 33 0 0 1-34 34h-300v733h270l-121-266h0a166 166 0 0 1 13-163z m-421 139a116 116 0 0 0 9-46h-233a115 115 0 0 0 11 49l20 44-1 0 86 189 106-233z m454 3l20 44-1 0 86 189 106-233 2-3a116 116 0 0 0 9-46h-233a115 115 0 0 0 11 49z" horiz-adv-x="1000" />

<glyph glyph-name="media" unicode="&#xe848;" d="M923 401l-173-111c0-1 0-2 0-3a124 124 0 0 1-44 94 218 218 0 1 1-265 31h-115a187 187 0 1 1-326 126 186 186 0 0 1 65-141 124 124 0 0 1-65-109v-250a125 125 0 0 1 125-125h500a125 125 0 0 1 125 122s0 7 0 18v-2l173-110a50 50 0 0 1 77 42v375a50 50 0 0 1-77 43z m-860 137a125 125 0 1 0 125-125 125 125 0 0 0-125 125z m624-500a63 63 0 0 0-62-63h-500a63 63 0 0 0-63 63v250a63 63 0 0 0 63 62h500a63 63 0 0 0 62-62z m-93 374a157 157 0 1 0 156 157 157 157 0 0 0-156-157z m340-398l-184 116c0 27 0 56 0 82l183 116z" horiz-adv-x="1000" />

<glyph glyph-name="broadcast" unicode="&#xe849;" d="M709 671a34 34 0 0 1 42 24l26 96a33 33 0 1 1-65 18l-26-97a33 33 0 0 1 23-41z m259-213l-96 26a34 34 0 0 1-18-65l97-25a34 34 0 0 1 17 64z m-137 144a33 33 0 0 1 46-13l94 55a33 33 0 1 1-33 58l-95-55a34 34 0 0 1-12-45z m-646-220a33 33 0 0 1-46 13l-10-6-19-11-93-54a34 34 0 0 1-12-46l133-232a33 33 0 0 1 46-12l64 37-33 58-36-20-100 174 65 37 252-437a34 34 0 0 1 58 34z m557 168l-150 259a33 33 0 0 1-56 2l-197-301-76-44-22-13-7-3a34 34 0 0 1-12-46l268-466a34 34 0 0 1 58 34l-251 436 88 51 175 271 247-428-322-16-59-35 33-58 47 27 359 20a34 34 0 0 1 26 50z" horiz-adv-x="1000" />

<glyph glyph-name="congratulation" unicode="&#xe84a;" d="M767 749l32-10a20 20 0 0 0 12-12l10-32a18 18 0 0 1 34 0l10 32a20 20 0 0 0 12 12l32 10a18 18 0 0 1 0 34l-32 10a20 20 0 0 0-12 12l-10 32a18 18 0 0 1-34 0l-10-32a21 21 0 0 0-12-12l-32-10a18 18 0 0 1 0-34z m-734-41l32-11a20 20 0 0 0 11-12l9-33a18 18 0 0 1 34-1l11 32a20 20 0 0 0 12 11l33 9a18 18 0 0 1 1 34l-32 11a20 20 0 0 0-11 12l-9 33a18 18 0 0 1-34 1l-11-32a21 21 0 0 0-12-11l-33-9a18 18 0 0 1-1-34z m145-58a22 22 0 0 1 9-29c2 0 110-63 149-156a22 22 0 0 1 20-14 13 13 0 0 1 9 1 23 23 0 0 1 13 29c-44 108-164 177-169 179a24 24 0 0 1-31-10z m20-187a22 22 0 0 1-22-39l88-51a24 24 0 0 1 10-4 18 18 0 0 1 19 12 23 23 0 0 1-9 30z m246 54h6a23 23 0 0 1 22 17l20 93a22 22 0 1 1-42 9l-20-93a19 19 0 0 1 15-26z m351-61l-112-67a24 24 0 0 1-9-30 21 21 0 0 1 19-12 31 31 0 0 1 12 3l112 67a22 22 0 1 1-22 39z m172-113h-449l246 246a33 33 0 0 1 0 47l-23 24a33 33 0 0 1-48 0l-316-317h-344a33 33 0 0 1 0-67h84v-326a100 100 0 0 1 100-100h566a100 100 0 0 1 100 100v326h84a33 33 0 0 1 0 67z m-256 275l12-11-71-71-12 12z m106-668a33 33 0 0 0-34-33h-566a33 33 0 0 0-34 33v326h634z m-329 744a22 22 0 1 1-22 21 22 22 0 0 1 22-21z m24 113a22 22 0 1 1-21 21 22 22 0 0 1 21-21z m466-292a22 22 0 1 1-21 21 22 22 0 0 1 21-21z m-946-30a22 22 0 1 1-21 21 22 22 0 0 1 22-21z m81 15a22 22 0 1 1 22-22 22 22 0 0 1-22 22z m745-22a22 22 0 1 1 21 22 22 22 0 0 1-21-21z" horiz-adv-x="1000" />

<glyph glyph-name="showmedia" unicode="&#xe84b;" d="M752 850h-486a81 81 0 0 1-78-83v-834a81 81 0 0 1 78-83h486a81 81 0 0 1 78 83v834a81 81 0 0 1-78 83z m-290-67h94a16 16 0 0 0 16-16 16 16 0 0 0-16-17h-94a16 16 0 0 0-15 17 16 16 0 0 0 15 16z m47-900a50 50 0 1 0 47 50 49 49 0 0 0-47-50z m-270 146v678h541v-678z m114 354a43 43 0 1 1 43-43 43 43 0 0 1-43 43z m0-64a21 21 0 1 0 22 21 21 21 0 0 0-22-21z m156-76a43 43 0 1 1 42-42 43 43 0 0 1-42 42z m0-64a21 21 0 1 0 21 22 21 21 0 0 0-21-22z m-156 252a43 43 0 1 1-43 43 43 43 0 0 1 43-43z m0 64a21 21 0 1 0-21-21 21 21 0 0 0 21 21z m156-112a43 43 0 1 1 42-43 43 43 0 0 1-42 43z m0-64a21 21 0 1 0 21 21 21 21 0 0 0-21-21z m155 64a43 43 0 1 1 43-43 43 43 0 0 1-43 43z m0-64a21 21 0 1 0 21 21 21 21 0 0 0-21-21z m0 198a43 43 0 1 1 43-43 43 43 0 0 1-43 43z m0-64a21 21 0 1 0 21 21 21 21 0 0 0-21-21z m-155-22a43 43 0 1 1-43 43 43 43 0 0 1 43-43z m0 64a21 21 0 1 0-22-21 21 21 0 0 0 22 21z m433-93l-9-15-17-3 13-10 1-18 10 16 16 1-13 11z m-20 74l27-30-6 40 23 23-34 0-26 28 5-37-22-27z m-806 229l-4-17-14-8 15-5 8-17 3 18 15 7-16 6z m-30 79l13 30-32-12-34 17 18-33-11-33 30 14 36-19z" horiz-adv-x="1000" />

<glyph glyph-name="organization-structure" unicode="&#xe84c;" d="M533 600h400a67 67 0 0 1 67 67v116a67 67 0 0 1-67 67h-400a67 67 0 0 1-66-67v-41h-100v41a67 67 0 0 1-67 67h-233a67 67 0 0 1-67-67v-116a67 67 0 0 1 67-67h25v-574a67 67 0 0 1 67-67h308v-43a67 67 0 0 1 66-66h400a67 67 0 0 1 67 67v116a67 67 0 0 1-67 67h-400a67 67 0 0 1-66-67v-40h-308a33 33 0 0 0-33 33v574h106v-201a67 67 0 0 1 66-67h169v-40a67 67 0 0 1 66-67h400a67 67 0 0 1 67 67v116a67 67 0 0 1-67 67h-400a67 67 0 0 1-66-67v-43h-169a33 33 0 0 0-33 33v202h35a67 67 0 0 1 67 67v41h100v-41a67 67 0 0 1 66-67z m0 183h400v-116h-400z m0-750h400v-116h-400z m0 375h400v-116h-400z m-233 259h-233v116h233z" horiz-adv-x="1000" />

<glyph glyph-name="trend" unicode="&#xe84d;" d="M359 300a50 50 0 0 1-50-50v-350a50 50 0 1 1 100 0v350a50 50 0 0 1-50 50z m283-117a50 50 0 0 1-50-50v-233a50 50 0 1 1 100 0v233a50 50 0 0 1-50 50z m-550 0a50 50 0 0 1-50-50v-233a50 50 0 1 1 100 0v233a50 50 0 0 1-50 50z m816 267a50 50 0 0 1-50-50v-500a50 50 0 1 1 100 0v500a50 50 0 0 1-50 50z m59 400h-234a33 33 0 0 1 0-67h146l-283-355-256 257a33 33 0 0 1-47 0l-283-283a33 33 0 0 1 0-47h0a33 33 0 0 1 47 0l259 259 259-259a33 33 0 0 1 15-9l1 0a33 33 0 0 1 4 0l3 0h3l4 0 1 0a33 33 0 0 1 5 1h0a33 33 0 0 1 14 10l308 388v-162a33 33 0 1 1 67 0v234a33 33 0 0 1-33 33z" horiz-adv-x="1000" />

<glyph glyph-name="computer" unicode="&#xe84e;" d="M973 727a127 127 0 0 1-16 6h-793a10 10 0 0 0-2-1 50 50 0 0 1-40-52q0-69 0-137v-9h57v9c0 46 0 75 0 122 0 13 0 13 13 13h743c13 0 13 0 13-13v-447c0-13 0-13-13-13h-564v-112h580a50 50 0 0 1 49 51q0 269 0 539a48 48 0 0 1-27 44z m-410-590a22 22 0 1 0 0 44 22 22 0 0 0 0-44z m-273 357h-250a40 40 0 0 1-40-40v-447a40 40 0 0 1 40-40h250a40 40 0 0 1 40 40v447a40 40 0 0 1-40 40z m-157-33h63c4 0 8-1 8-6s-3-6-8-6h-63c-4 0-8 1-8 6s4 6 8 6z m32-477a16 16 0 0 0-17 15 17 17 0 0 0 16 17 16 16 0 0 0 16-16 15 15 0 0 0-15-16z m120 50h-240v394h239z m475-20h-108c0 10 0 18 0 27 0 10-5 15-15 15h-138c-10 0-15-5-15-16 0-8 0-16 0-26h-79c-13 0-18-4-18-17q0-5 0-11c0-15 4-19 19-19 118 0 357 0 359 0a13 13 0 0 1 13 13c0 5 0 9 0 14 0 16-3 20-19 20z" horiz-adv-x="1000" />

<glyph glyph-name="cube" unicode="&#xe84f;" d="M874 591c23 11 34 30 34 48s-14 34-34 45l-314 155a149 149 0 0 1-57 11 135 135 0 0 1-61-14l-316-161c-23-11-34-30-34-48s14-34 34-45l314-155a149 149 0 0 1 57-11 135 135 0 0 1 61 14z m-377-108a84 84 0 0 0-30 5l-285 141 290 148a69 69 0 0 0 31 6 84 84 0 0 0 29-5l286-141-290-148a69 69 0 0 0-31-6z m-82-108l-280 148a64 64 0 0 1-34 9 47 47 0 0 1-50-48v-395c0-30 25-66 59-82l282-148a64 64 0 0 1 34-9 47 47 0 0 1 48 48v395c0 30-25 66-59 82z m-8-449l-267 141-1 0a42 42 0 0 0-21 23v367l267-142 2 0a42 42 0 0 0 20-23z m494 606a95 95 0 0 1-34-9l-280-148c-34-16-59-52-59-82v-395a47 47 0 0 1 48-48 70 70 0 0 1 34 9l280 148c34 16 59 52 59 82v395a47 47 0 0 1-48 48z m-19-442a42 42 0 0 0-20-22l-2-1-265-140v365a42 42 0 0 0 21 23l1 0 265 140z" horiz-adv-x="1000" />

<glyph glyph-name="meeting" unicode="&#xe850;" d="M594 478a76 76 0 0 1-76 76h-408a115 115 0 0 1-110-119l10-201a97 97 0 0 1 67-86l12-222a76 76 0 0 1 77-76h76a76 76 0 0 1 78 74l27 447 171 31a76 76 0 0 1 76 76z m-311-51l-30-500v-1a9 9 0 0 0-9-9h-78a9 9 0 0 0-10 9v2l-16 269-43 14a30 30 0 0 0-20 27l-10 200a48 48 0 0 0 45 49h406a9 9 0 0 0 9-9 10 10 0 0 0-9-10h-6z m-69 173a125 125 0 1 1-125 125 125 125 0 0 1 125-125z m0 183a58 58 0 1 0-58-58 58 58 0 0 0 58 58z m686-58h-400a33 33 0 1 1 0-67h400a34 34 0 0 0 33-33v-467a34 34 0 0 0-33-33h-467a33 33 0 1 1 0-67h467a100 100 0 0 1 100 100v467a100 100 0 0 1-100 100z m-394-405a25 25 0 0 1-33-38l83-71a25 25 0 0 1 16-6l4 0a25 25 0 0 1 17 11l66 100 56-45a25 25 0 0 1 37 7l130 223a25 25 0 1 1-43 25l-115-197-56 44a25 25 0 0 1-36-6l-65-100z" horiz-adv-x="1000" />

<glyph glyph-name="company" unicode="&#xe851;" d="M967-83h-29v633a67 67 0 0 1-66 67h-267v166a67 67 0 0 1-67 67h-400a67 67 0 0 1-66-67v-866h-39a33 33 0 0 1 0-66h39v-1h866v1h29a33 33 0 1 1 0 66z m-429 0h-400v866h400z m334 0h-267v633h267z m-500 253h83a17 17 0 0 1 0 33h-83a17 17 0 1 1 0-33z m-150 400h83a17 17 0 1 1 0 33h-83a17 17 0 0 1 0-33z m150 0h83a17 17 0 1 1 0 33h-83a17 17 0 1 1 0-33z m-150-133h83a17 17 0 1 1 0 33h-83a17 17 0 0 1 0-33z m150-134h83a17 17 0 1 1 0 34h-83a17 17 0 1 1 0-34z m0 134h83a17 17 0 1 1 0 33h-83a17 17 0 1 1 0-33z m325-267h83a17 17 0 0 1 0 33h-83a17 17 0 0 1 0-33z m0 133h83a17 17 0 0 1 0 34h-83a17 17 0 0 1 0-34z m0 134h83a17 17 0 0 1 0 33h-83a17 17 0 0 1 0-33z m-475-267h83a17 17 0 1 1 0 33h-83a17 17 0 0 1 0-33z m0 133h83a17 17 0 1 1 0 34h-83a17 17 0 0 1 0-34z" horiz-adv-x="1000" />

<glyph glyph-name="develop" unicode="&#xe852;" d="M885-150a114 114 0 0 0-80 33l-169 169-26-25-61 63 76 75-89 88-121-121a211 211 0 0 0-288-248l-59 25 100 100v28h-25l-100-102-26 59a211 211 0 0 0 249 287l121 121-175 175-25-25-175 174 111 111 174-173-25-25 176-176 120 121a211 211 0 0 0 289 248l59-25-102-101v-25h28l100 100 25-59a211 211 0 0 0-249-287l-120-121 88-89 75 75 61-61-25-25 169-169a114 114 0 0 0-81-195z m-238 265l194-194a62 62 0 0 1 88 88l-194 194-88-88z m-488-188a159 159 0 0 1 202 204l-5 15 168 169 180 180 16-6a159 159 0 0 1 204 201l-61-60-102-1 2 98 62 63a159 159 0 0 1-202-205l5-15-179-180-168-168-16 6a159 159 0 0 1-205-203l63 63 99 1-1-102z m-74 799l100-100 25 25 13 13-100 100z m0 0" horiz-adv-x="1000" />

<glyph glyph-name="position" unicode="&#xe853;" d="M390 676a83 83 0 0 1 64-34h92a83 83 0 0 1 64 34l71 105a45 45 0 0 1 4 46 44 44 0 0 1-41 23h-288a44 44 0 0 1-41-23 45 45 0 0 1 4-46z m212 107l-47-69a16 16 0 0 0-11-6h-88a16 16 0 0 0-11 6l-47 69z m110-675l-124 433a66 66 0 0 1-61 47h-53a66 66 0 0 1-62-47l-124-433a80 80 0 0 1 17-72l156-169a53 53 0 0 1 78 0l156 169a80 80 0 0 1 17 72z m-67-28l-145-157-145 157a14 14 0 0 0-2 11l123 430h48l123-430a14 14 0 0 0-2-11z" horiz-adv-x="1000" />

<glyph glyph-name="teach" unicode="&#xe854;" d="M269 452h464a33 33 0 0 1 0 67h-464a33 33 0 0 1 0-67z m0-199h464a33 33 0 0 1 0 67h-464a33 33 0 0 1 0-67z m0-198h265a33 33 0 1 1 0 66h-265a33 33 0 0 1 0-66z m596 657h-67v105a33 33 0 0 1-33 33h-564a99 99 0 0 1-98-115v-786a99 99 0 0 1 99-99h663a33 33 0 0 1 33 33v796a33 33 0 0 1-33 33z m-664 72h530v-67h-530a33 33 0 0 0 0 67z m631-868h-630a33 33 0 0 0-33 33v697h663z" horiz-adv-x="1000" />

<glyph glyph-name="home-fill" unicode="&#xe855;" d="M991 345l-469 495a30 30 0 0 1-44 0l-469-495a35 35 0 0 1 0-47 30 30 0 0 1 45 0l30 31v-412a67 67 0 0 1 66-67h183a67 67 0 0 1 67 67v266h200v-266a67 67 0 0 1 67-67h183a67 67 0 0 1 67 67v412l30-31a30 30 0 0 1 44 0 35 35 0 0 1 0 47z" horiz-adv-x="1000" />

<glyph glyph-name="motorbike" unicode="&#xe856;" d="M876 345a104 104 0 1 1 104-104 104 104 0 0 1-104 104z m-421 0a104 104 0 1 1 104-104 104 104 0 0 1-104 104z m450 83a45 45 0 1 1-45 45 45 45 0 0 1 45-45z m0 59a14 14 0 1 0-14-14 14 14 0 0 0 14 14z m-87-76a16 16 0 1 1 0 31h-45a16 16 0 1 1 0-31z m-324 128h14v-14a16 16 0 0 1 31 0v14h15a16 16 0 1 1 0 32h-15v14a16 16 0 0 1-31 0v-14h-14a16 16 0 1 1 0-32z m-326-177a16 16 0 0 1 31 0v14h14a16 16 0 1 1 0 31h-14v15a16 16 0 0 1-31 0v-15h-15a16 16 0 0 1 0-31h15z m-72-114a16 16 0 1 1 15-15 16 16 0 0 1-15 15z m-80 0a16 16 0 1 1 15-15 16 16 0 0 1-15 15z m512-117h-35a104 104 0 1 1-149 0h-163a16 16 0 0 1 0-32h347a16 16 0 1 1 0 32z m-109 0a73 73 0 1 0 73 72 73 73 0 0 0-74-72z m271 196a16 16 0 1 1-15-16 16 16 0 0 1 15 16z m-504-94a16 16 0 1 1-15-16 16 16 0 0 1 15 16z m798-102h-71a104 104 0 0 1-90 175l-10 34a139 139 0 0 0 25 3 16 16 0 0 1 0 31 170 170 0 0 1-35-4l-45 147a16 16 0 0 1-15 11h-74a16 16 0 0 1 0-31h63l41-136a171 171 0 0 1-104-142h-81a170 170 0 0 1-37 92h74a16 16 0 1 1 0 31h-64v19a75 75 0 0 1-74 75h-142a16 16 0 0 1-16-16v-71a172 172 0 0 1-62-67h-35a16 16 0 1 1 0-31h4a16 16 0 0 1 5-31h8c-1-5-1-11-1-16a16 16 0 1 1 31 0 139 139 0 0 0 279 0 16 16 0 0 1 15-16h111a16 16 0 0 1 16 16 139 139 0 0 0 83 127l10-34a104 104 0 0 1-29-166h-159a16 16 0 1 1 0-31h379a16 16 0 0 1 0 31z m-454 211h-13a170 170 0 0 1-157 22v41h127a43 43 0 0 0 43-44z m309-211a73 73 0 0 0-36 136l21-68a16 16 0 1 1 30 9l-21 68c2 0 4 0 6 0a73 73 0 0 0 0-145z" horiz-adv-x="1000" />

<glyph glyph-name="account" unicode="&#xe857;" d="M743 850h-486a81 81 0 0 1-78-83v-834a81 81 0 0 1 78-83h486a81 81 0 0 1 78 83v834a81 81 0 0 1-78 83z m-290-67h94a16 16 0 0 0 16-16 16 16 0 0 0-16-17h-94a16 16 0 0 0-15 17 16 16 0 0 0 15 16z m47-900a50 50 0 1 0 47 50 49 49 0 0 0-47-50z m-270 146v678h540v-678z m114 354a43 43 0 1 1 43-43 43 43 0 0 1-43 43z m0-64a21 21 0 1 0 22 21 21 21 0 0 0-22-21z m156-76a43 43 0 1 1 43-42 43 43 0 0 1-43 42z m0-64a21 21 0 1 0 21 22 21 21 0 0 0-21-22z m-156 252a43 43 0 1 1-42 43 43 43 0 0 1 42-43z m0 64a21 21 0 1 0-21-21 21 21 0 0 0 21 21z m156-112a43 43 0 1 1 42-43 43 43 0 0 1-42 43z m0-64a21 21 0 1 0 21 21 21 21 0 0 0-21-21z m155 64a43 43 0 1 1 43-43 43 43 0 0 1-43 43z m0-64a21 21 0 1 0 21 21 21 21 0 0 0-21-21z m0 198a43 43 0 1 1 43-43 43 43 0 0 1-43 43z m0-64a21 21 0 1 0 21 21 21 21 0 0 0-21-21z m-155-22a43 43 0 1 1-43 43 43 43 0 0 1 43-43z m0 64a21 21 0 1 0-21-21 21 21 0 0 0 21 21z" horiz-adv-x="1000" />

<glyph glyph-name="qrcode2" unicode="&#xe858;" d="M313 788h-250v-250h250v250z m62 62v0-375h-375v375h375z m-250-125h125v-125h-125z m813 63h-250v-250h250v250z m62 62v0-375h-375v375h375z m-250-125h125v-125h-125z m-437-562h-250v-251h250v251z m62 62v0-375h-375v375h375z m-250-125h125v-125h-125z m313 750h62v-62h-62z m62-62h63v-63h-63z m-62-63h62v-62h-62z m62-62h63v-63h-63z m-62-63h62v-62h-62z m62-62h63v-63h-63z m-62-63h62v-62h-62z m0-125h62v-62h-62z m62-62h63v-63h-63z m-62-63h62v-62h-62z m62-62h63v-63h-63z m-62-63h62v-62h-62z m62-62h63v-63h-63z m-62-63h62v-63h-62z m62-63h63v-62h-63z m438 438h62v-62h-62z m-875 0h62v-62h-62z m62 63h63v-63h-63z m-125 0h63v-63h-63z m250 0h63v-63h-63z m63-63h62v-62h-62z m62 63h63v-63h-63z m188-63h62v-62h-62z m62 63h63v-63h-63z m63-63h62v-62h-62z m62 63h63v-63h-63z m63-63h62v-62h-62z m62 63h63v-63h-63z m63-188h62v-62h-62z m-375 0h62v-62h-62z m62 63h63v-63h-63z m63-63h62v-62h-62z m125 0h62v-62h-62z m62 63h63v-63h-63z m63-188h62v-62h-62z m-375 0h62v-62h-62z m62 63h63v-63h-63z m125 0h63v-63h-63z m63-63h62v-62h-62z m62 63h63v-63h-63z m63-188h62v-63h-62z m-313 63h63v-63h-63z m63-63h62v-63h-62z m62 63h63v-63h-63z m63-63h62v-63h-62z m-188-63h63v-62h-63z m125 0h63v-62h-63z m125 0h63v-62h-63z" horiz-adv-x="1000" />

<glyph glyph-name="qrcode" unicode="&#xe859;" d="M3 406h442v444h-445v-442h3z m88 353h263v-261h-263z m794-557h115v115h-115z m115 555v93h-93v-91h-94v91h-256v-184h89v93h167v-163h-164v-96h-91v-91h92v70h91v-70h167v94h92v163h-90v91z m-93-254h-94v84h94z m-717-373h-99v-95h-91v-185h91v182h99z m-36 430h124v124h-124z m-63-243h-91v-206h91z m815-374h-94v-93h188v186h-94z m-722 261h69v-98h95v-71h-91v-68h-94v-117h207v93h95v187h-95v74h95v113h-281z m651-168v281h-209v-93h-90v-209h114v115h69v-94z m-299-186h114v117h-114z" horiz-adv-x="1000" />

<glyph glyph-name="coupon" unicode="&#xe85a;" d="M964 593l-89-88 0 0v-249a37 37 0 0 0-11-27l-342-342a125 125 0 0 0-176 0l-309 309a125 125 0 0 0 0 176l344 344a38 38 0 0 0 24 9h250l88 89a125 125 0 0 0 176 0l45-45a125 125 0 0 0 0-176z m-341 70h-207l-335-335a62 62 0 0 1 0-88l309-309a62 62 0 0 1 88 0l334 334v208a123 123 0 0 0-113 31l-44 45a123 123 0 0 0-32 114z m296 62l-44 44a62 62 0 0 1-88 0l-88-88a62 62 0 0 1 0-88l44-44a62 62 0 0 1 88 0l88 88a62 62 0 0 1 0 88z m-170-342a31 31 0 0 0-31-31h-99l30-30a31 31 0 1 0-44-44l-66 66-58-58 66-66a31 31 0 0 0-44-44l-66 66-70-70a31 31 0 1 0-45 44l70 70-66 66a31 31 0 1 0 44 45l66-66 58 57-66 67a31 31 0 1 0 44 44l27-27v95a31 31 0 0 0 63 0v-153h156a31 31 0 0 0 31-31z m0 0" horiz-adv-x="1000" />

<glyph glyph-name="balance2" unicode="&#xe85b;" d="M833 501a732 732 0 0 1-78 70 64 64 0 0 1-10 8c50 17 85 57 85 106 0 65-63 115-137 115a144 144 0 0 1-46-8 62 62 0 0 1-15-7 9 9 0 0 0-9 2 182 182 0 0 1-27 30 121 121 0 0 1-166 0 188 188 0 0 1-26-29 19 19 0 0 0-10-3l-16 8a123 123 0 0 1-46 8c-74 0-136-49-136-115 0-41 25-76 64-97-3-2-8-6-12-9a554 554 0 0 1-79-70c-76-77-120-165-120-263 0-269 202-397 447-397 103 0 202 21 283 68 110 65 172 174 172 330 0 91-45 176-118 253z m-337-590c-215 0-386 109-386 338 0 79 37 153 100 220a600 600 0 0 0 72 63c8 5 16 11 23 16a91 91 0 0 0 8 4c34 22 31 62-2 79h-1c-1 0-1 0-1 1h-2l-4 1c-30 8-48 30-48 50 0 29 32 55 75 55a63 63 0 0 0 25-4 16 16 0 0 0 7-4l3-2a70 70 0 0 1 82 18l3 4a60 60 0 0 0 17 18 68 68 0 0 0 44 19 70 70 0 0 0 44-18 208 208 0 0 0 17-19l3-3a70 70 0 0 1 82-20l4 3c1 0 4 2 7 3a84 84 0 0 0 25 5c43 0 75-26 75-55 0-22-18-42-48-50l-5-1a69 69 0 0 0-16-6c-43-12-50-56-15-80 2-2 6-3 9-7a241 241 0 0 0 23-17 612 612 0 0 0 72-64c64-67 102-139 102-212 0-239-163-335-394-335z m126 354a25 25 0 1 1 0 50h-103l96 97a26 26 0 0 1 0 37 25 25 0 0 1-36 0l-83-83-83 83a25 25 0 0 1-36 0 26 26 0 0 1 0-37l96-97h-103a25 25 0 1 1 0-50h100v-25h-100a25 25 0 1 1 0-50h100v-75a26 26 0 0 1 51 0v73h100a25 25 0 1 1 0 50h-100v26h100z m0 0" horiz-adv-x="1000" />

<glyph glyph-name="invite" unicode="&#xe85c;" d="M873 534v199a117 117 0 0 1-117 117h-512a117 117 0 0 1-116-117v-199a132 132 0 0 1-128-132v-420a132 132 0 0 1 131-132v0h738a132 132 0 0 1 131 132v420a132 132 0 0 1-127 132z m0-65a66 66 0 0 0 60-50l-60-32z m-680 264a52 52 0 0 0 51 52h512a52 52 0 0 0 52-52v-381l-311-164-305 161z m-65-264v-86l-62 32a66 66 0 0 0 62 54z m808-487a67 67 0 0 0-67-67h-738a67 67 0 0 0-66 67v361l432-229 366 194h10v5l63 33z m-515 627a316 316 0 0 1-46 63l-34-19a316 316 0 0 0 43-65z m235-239a174 174 0 0 0 12 42 1050 1050 0 0 0-135-8c-40 0-74 2-98 15-8 5-15 9-20 13v126h-75v-39h34v-85a146 146 0 0 1-40-34l27-40c10 20 22 43 31 43s20-11 36-20c26-14 56-18 103-18 38 1 99 3 125 5z m-236 73a86 86 0 0 0 20-25 90 90 0 0 1 39 54h30a62 62 0 0 0-5-25 8 8 0 0 0-8-2 123 123 0 0 0-17 1 72 72 0 0 0 7-27 214 214 0 0 1 28 0 28 28 0 0 1 18 9c6 7 9 24 11 61 0 4 0 12 0 12h-58c0 4 1 8 1 12h64v28h-40a101 101 0 0 1-11 18h35l0 0a171 171 0 0 0 28-20l0 0c8-14 18-29 27-44a150 150 0 0 0-49-60 141 141 0 0 0 24-26 179 179 0 0 1 44 50c8-15 15-29 20-40l30 19c-7 16-19 37-31 60a435 435 0 0 1 22 103h11v35h-65q5 22 8 45l-34 4a381 381 0 0 0-26-110v87h-40c3 7 7 14 10 21l-42 4c-1-8-3-16-5-25h-35v-103h52l-20-7a62 62 0 0 0 7-10h-46v-29h28c-2-30-9-55-32-70z m167 158h27a396 396 0 0 0-10-66c-6 10-12 18-18 27l-17-10a273 273 0 0 1 18 49z m-123 35h44v-14h-44z m0-52v14h44v-14z" horiz-adv-x="1000" />

<glyph glyph-name="member" unicode="&#xe85d;" d="M939 575a61 61 0 0 1-40-106c-2-2-129-81-189-117-15-8-21-8-30 9-40 72-78 142-117 212-14 25-27 51-42 76a61 61 0 1 1-44 0l0 0c-55-97-108-195-161-293-6-10-13-12-23-6-17 11-36 21-53 32-47 27-94 55-140 85l0 0a61 61 0 1 1-39-13h1c8-28 15-53 21-76 27-98 57-195 84-293 7-15 11-19 28-19h605a22 22 0 0 1 25 19c36 121 108 366 109 369l5 0a61 61 0 1 1 0 122z m-110-241c-19-66-42-143-59-201h-547c-11 39-23 78-34 117q-15 51-30 102l46-27c8-5 18-11 27-16s17-10 25-15l1-1a86 86 0 0 1 45-13 80 80 0 0 1 70 42l1 3c41 75 83 151 125 227l7-12c37-68 76-139 116-211 22-43 56-49 74-49a95 95 0 0 1 48 14l1 1c36 22 65 40 89 54z m-45-334h-568a33 33 0 0 1-33-33v-1a33 33 0 0 1 33-33h568a33 33 0 0 1 33 33v1a33 33 0 0 1-33 33z" horiz-adv-x="1000" />

<glyph glyph-name="recovery" unicode="&#xe85e;" d="M968-33a31 31 0 0 0-27 16c-117 207-283 231-502 233v-194a31 31 0 0 0-19-29 32 32 0 0 0-34 5l-375 329a29 29 0 0 0-11 22 32 32 0 0 0 10 24l376 352a32 32 0 0 0 34 6 31 31 0 0 0 19-29v-165a536 536 0 0 0 266-84 617 617 0 0 0 181-184 856 856 0 0 0 113-265 32 32 0 0 0-20-35 35 35 0 0 0-11-2z m-890 384l298-261v157a31 31 0 0 0 31 31c133 0 241-7 336-41a437 437 0 0 0 132-76 732 732 0 0 1-43 76c-104 158-248 238-425 238a31 31 0 0 0-31 31v124z m0 0" horiz-adv-x="1000" />

<glyph glyph-name="progress" unicode="&#xe85f;" d="M10303-150a500 500 0 0 0-497 459h-3919a497 497 0 0 0-991 0h-3901a500 500 0 1 0 0 83h3899a497 497 0 0 0 991 0h3921a499 499 0 1 0 497-542z" horiz-adv-x="10802" />

<glyph glyph-name="tempool" unicode="&#xe860;" d="M900 708h-420l-46 50h-334a100 100 0 0 1-100-100v-616a100 100 0 0 1 100-100h800a100 100 0 0 1 100 100v566a100 100 0 0 1-100 100z m33-666a34 34 0 0 0-33-34h-800a34 34 0 0 0-33 34v616a34 34 0 0 0 33 34h304l200-217h329z m0 500h-300l-92 100h359a34 34 0 0 0 33-34z m-700-360a33 33 0 1 1 34-34 33 33 0 0 1-34 33z m0 183a33 33 0 1 1 34-33 33 33 0 0 1-34 33z m100-35a33 33 0 0 1 34-33h400a33 33 0 1 1 0 67h-400a33 33 0 0 1-34-34z m434-150h-400a33 33 0 0 1 0-67h400a33 33 0 1 1 0 67z" horiz-adv-x="1000" />

<glyph glyph-name="shovel" unicode="&#xe861;" d="M991 663l-178 178a32 32 0 0 1-44 0 157 157 0 0 1-45-111 159 159 0 0 1 26-87l-339-339-134 134a32 32 0 0 1-44 0l-159-159a249 249 0 0 1-73-178 253 253 0 0 1 73-178 249 249 0 0 1 178-73 253 253 0 0 1 177 73l159 159a33 33 0 0 1 0 45l-133 134 338 338a157 157 0 0 1 197 20 32 32 0 0 1 9 22 30 30 0 0 1-8 22z m-470-557l-136-137a188 188 0 1 0-266 266l136 136 111-111-103-103a31 31 0 0 1 44-44l103 103z m359 530a94 94 0 0 0-94 94 94 94 0 0 0 10 40l124-125a107 107 0 0 0-40-9z" horiz-adv-x="1000" />

<glyph glyph-name="icon-pickup" unicode="&#xe862;" d="M763 71l-263 263-263-263a140 140 0 0 0-196 0h0a140 140 0 0 0 0 197l361 361a140 140 0 0 0 196 0h0l361-361a139 139 0 0 0-196-197z" horiz-adv-x="1000" />
</font>
</defs>
</svg>
